<svg width="10" height="7" viewBox="0 0 10 7" fill="none" xmlns="http://www.w3.org/2000/svg">
<path d="M1.3575 2.46862C1.16445 2.27118 0.847885 2.26762 0.650441 2.46068C0.452998 2.65373 0.449441 2.9703 0.642497 3.16774L1.3575 2.46862ZM4.11111 6L3.75361 6.34956L4.11111 6.71519L4.46861 6.34956L4.11111 6ZM9.3575 1.34956C9.55056 1.15212 9.547 0.835553 9.34956 0.642497C9.15211 0.449441 8.83555 0.452998 8.6425 0.650441L9.3575 1.34956ZM0.642497 3.16774L3.75361 6.34956L4.46861 5.65044L1.3575 2.46862L0.642497 3.16774ZM4.46861 6.34956L9.3575 1.34956L8.6425 0.650441L3.75361 5.65044L4.46861 6.34956Z" fill="white"/>
</svg>
