<svg width="229" height="299" viewBox="0 0 229 299" fill="none" xmlns="http://www.w3.org/2000/svg">
<path d="M101.446 297.812L101.438 297.812C74.3127 295.476 41.6413 281.292 21.7395 249.771L21.7336 249.762L21.7274 249.753C-7.56938 207.553 -1.07408 168.346 8.96744 139.091C16.5881 116.962 35.0647 90.4753 53.9916 67.0502C72.6785 43.9221 91.7598 23.8313 101.149 13.9455L101.485 13.5914L114.395 0.712345L128.145 14.9069C128.146 14.9082 128.147 14.9096 128.148 14.9109C129.249 16.0972 130.476 17.414 131.813 18.8498C142.636 30.4678 160.715 49.8738 177.89 70.9043C187.54 82.7202 196.899 95.0419 204.522 106.776C212.15 118.518 218.02 129.641 220.718 139.066L220.722 139.082L220.728 139.097C231.401 168.878 234.137 212.148 208.882 249.669C192.307 274.204 163.062 295.039 128.873 297.811L128.864 297.812L128.863 297.812L128.86 297.813L128.845 297.814L128.786 297.82C128.734 297.825 128.656 297.832 128.555 297.842C128.352 297.86 128.054 297.887 127.675 297.919C126.917 297.984 125.834 298.07 124.536 298.156C121.94 298.328 118.489 298.5 115.061 298.5C111.633 298.5 108.229 298.328 105.68 298.156C104.406 298.07 103.346 297.984 102.606 297.92C102.235 297.887 101.945 297.86 101.747 297.842C101.649 297.832 101.573 297.825 101.522 297.82L101.465 297.814L101.451 297.813L101.447 297.812L101.446 297.812L101.395 298.31L101.446 297.812ZM128.414 260.607L128.421 261.187L128.993 261.094C139.885 259.337 148.55 256.596 156.296 251.978C164.042 247.361 170.839 240.887 178.023 231.705L178.034 231.69L178.044 231.675C196.807 203.654 195.215 177.317 190.499 157.146L190.276 156.195L189.635 156.931L128.545 227.026C128.543 227.027 128.542 227.029 128.54 227.031C128.198 227.407 128.011 227.817 128.011 228.39L128.011 228.396L128.414 260.607ZM181.938 131.096L182.178 130.82L181.989 130.508C168.273 107.882 147.682 82.9294 128.889 61.2237L128.011 60.2096V61.5509V187.912C128.011 188.765 128.491 189.456 129.138 189.758C129.801 190.069 130.622 189.958 131.178 189.258L181.938 131.096ZM70.6222 99.8661C65.2614 105.36 58.7289 115.999 53.0973 126.542C47.4505 137.113 42.6692 147.663 40.8445 152.98C38.4053 160.086 37.0841 170.1 36.4123 180.962L36.3919 181.293L36.6893 181.441L99.1518 212.408C99.7531 212.732 100.422 212.603 100.909 212.265C101.4 211.924 101.761 211.337 101.761 210.644V200.676V200.672L104.269 62.0723L104.293 60.7888L103.416 61.7089C97.1976 67.5862 91.5634 73.4847 86.0569 79.9388L86.0485 79.9476L86.0399 79.9586C80.9134 85.9687 75.8971 92.4608 70.6222 99.8661ZM41.7514 210.197L40.75 209.697L41.0459 210.777C43.0991 218.266 45.4315 221.919 48.6896 227.022C49.8651 228.864 51.1612 230.894 52.6081 233.361L52.6308 233.4L52.6601 233.434C59.3218 241.189 64.7579 246.632 71.9036 251.042C79.0444 255.448 87.8624 258.804 101.265 262.44L101.895 262.611V261.957V241.443C101.895 241.07 101.809 240.721 101.621 240.412C101.433 240.105 101.161 239.865 100.83 239.684L100.822 239.679L100.813 239.675L41.7514 210.197Z" stroke="white" stroke-opacity="0.5"/>
</svg>
