<svg width="15" height="19" viewBox="0 0 15 19" fill="none" xmlns="http://www.w3.org/2000/svg">
<path fill-rule="evenodd" clip-rule="evenodd" d="M6.64162 18.9561C6.64162 18.9561 7.0857 19 7.53674 19C7.98779 19 8.44413 18.9561 8.44413 18.9561C10.6951 18.7791 12.6191 17.4487 13.7093 15.883C15.3712 13.4879 15.1905 10.7271 14.489 8.82823C13.7768 6.4145 9.72787 2.2956 8.41775 0.925649L7.49353 0L6.62404 0.841487C5.41065 2.08097 1.55878 6.00445 0.55641 8.82823C-0.103042 10.6921 -0.53109 13.1954 1.39629 15.8887C2.7064 17.9017 4.85671 18.807 6.64162 18.9561ZM8.44413 16.5599C9.86576 16.3374 10.6971 15.8672 11.6351 14.7041C12.8573 12.9334 12.7539 11.2699 12.4462 9.9931L8.44413 14.4478C8.42654 14.4665 8.41775 14.4851 8.41775 14.5131L8.44413 16.5599ZM8.56723 12.0062L11.8926 8.30959C10.9958 6.8744 9.64873 5.29054 8.41775 3.91127V11.9409C8.41775 12.0248 8.51447 12.0714 8.56723 12.0062ZM4.65111 6.36644C5.36783 5.39011 6.01101 4.66448 6.79713 3.94382L5.66124 5.10102L4.65111 6.36644ZM6.63284 12.7517L6.79713 3.94382L5.66124 5.10102L4.65111 6.36644C3.9554 7.05648 2.94378 9.06044 2.70638 9.73144C2.54811 10.1788 2.46174 10.8116 2.41778 11.5012L6.50973 13.4693C6.56249 13.4973 6.63284 13.4507 6.63284 13.3854V12.7517ZM2.72018 13.3854C2.90167 14.0276 3.11404 14.2171 3.47419 14.8129C4.34543 15.7969 4.88808 16.1846 6.64162 16.6461V15.3425C6.64162 15.3052 6.62404 15.2773 6.58887 15.2586L2.72018 13.3854Z" fill="#F0F0F0"/>
</svg>
