<svg width="17" height="10" viewBox="0 0 17 10" fill="none" xmlns="http://www.w3.org/2000/svg">
<path d="M8.5 2L9.18232 1.26895L8.5 0.632115L7.81768 1.26895L8.5 2ZM0.317681 8.26894C-0.0860692 8.64578 -0.10789 9.27857 0.268944 9.68232C0.645778 10.0861 1.27857 10.1079 1.68232 9.73106L0.317681 8.26894ZM15.3177 9.73106C15.7214 10.1079 16.3542 10.0861 16.7311 9.68232C17.1079 9.27857 17.0861 8.64578 16.6823 8.26895L15.3177 9.73106ZM7.81768 1.26895L0.317681 8.26894L1.68232 9.73106L9.18232 2.73106L7.81768 1.26895ZM7.81768 2.73106L15.3177 9.73106L16.6823 8.26895L9.18232 1.26895L7.81768 2.73106Z" fill="#181818"/>
</svg>
