<svg width="17" height="10" viewBox="0 0 17 10" fill="none" xmlns="http://www.w3.org/2000/svg">
<path d="M8.5 8L7.81768 8.73105L8.5 9.36788L9.18232 8.73105L8.5 8ZM16.6823 1.73106C17.0861 1.35422 17.1079 0.721433 16.7311 0.317682C16.3542 -0.0860691 15.7214 -0.107889 15.3177 0.268945L16.6823 1.73106ZM1.68232 0.268943C1.27857 -0.10789 0.645779 -0.0860704 0.268945 0.31768C-0.107889 0.721431 -0.0860685 1.35422 0.317682 1.73105L1.68232 0.268943ZM9.18232 8.73105L16.6823 1.73106L15.3177 0.268945L7.81768 7.26894L9.18232 8.73105ZM9.18232 7.26894L1.68232 0.268943L0.317682 1.73105L7.81768 8.73105L9.18232 7.26894Z" fill="#181818"/>
</svg>
