<svg width="13" height="14" viewBox="0 0 13 14" fill="none" xmlns="http://www.w3.org/2000/svg">
<path d="M12.4997 10.4702L12.4996 10.4701V10.4817L12.4996 12.5893L12.4996 12.5911C12.5001 12.7223 12.475 12.8513 12.427 12.9694L12.8901 13.1578L12.427 12.9694C12.3789 13.0876 12.3095 13.191 12.225 13.2743C12.1407 13.3574 12.0434 13.4186 11.9403 13.456C11.8388 13.4929 11.7324 13.5066 11.6273 13.497C9.70163 13.2712 7.84952 12.5633 6.21969 11.4274L6.2197 11.4273L6.21578 11.4247C4.69886 10.3887 3.40984 9.00435 2.44237 7.36796L2.44239 7.36795L2.4402 7.36432C1.37533 5.59761 0.711115 3.584 0.503275 1.48637C0.492853 1.35734 0.507402 1.22774 0.545503 1.10615C0.58392 0.983562 0.644955 0.873261 0.722872 0.781521C0.800714 0.689869 0.893337 0.619103 0.993508 0.571547C1.09346 0.524096 1.19986 0.500213 1.3063 0.500068H3.26695V0.500096L3.27224 0.50004C3.45731 0.498082 3.64267 0.56814 3.79282 0.706935C3.94351 0.846212 4.04809 1.04574 4.07824 1.27171C4.16536 1.98021 4.32672 2.6762 4.55943 3.34648L4.5598 3.34756C4.61811 3.51428 4.63104 3.69693 4.59618 3.87262C4.56142 4.04778 4.48154 4.20434 4.37051 4.32536L3.54145 5.21643C3.39649 5.37223 3.36604 5.60272 3.46555 5.79083C4.43639 7.62589 5.85261 9.15006 7.5686 10.1988C7.77142 10.3227 8.03348 10.2868 8.19539 10.1127L9.0236 9.22257C9.02388 9.22228 9.02415 9.22198 9.02443 9.22169C9.13652 9.10289 9.27368 9.02523 9.41769 8.99222L9.30598 8.50486L9.41769 8.99222C9.56172 8.95921 9.71164 8.97096 9.85133 9.0274L9.8525 9.02787C10.4816 9.2802 11.1358 9.45551 11.8025 9.55024C11.9879 9.57892 12.1656 9.68079 12.2975 9.8481C12.4305 10.0169 12.5051 10.2382 12.4997 10.4702Z" fill="white" stroke="white" stroke-linecap="round" stroke-linejoin="round"/>
</svg>
