<svg width="61" height="53" viewBox="0 0 61 53" fill="none" xmlns="http://www.w3.org/2000/svg">
<path fill-rule="evenodd" clip-rule="evenodd" d="M30.5 52C46.5201 52 59.5 39.0673 59.5 23.1226C59.5 14.4124 55.6265 6.60101 49.5 1.30572L49.5 2.11894e-06C56.215 5.47922 60.5 13.8026 60.5 23.1226C60.5 39.6234 47.0685 53 30.5 53C13.9315 53 0.499998 39.6234 0.499999 23.1226C0.499999 13.8026 4.78499 5.47922 11.5 5.90507e-06L11.5 1.30573C5.37345 6.60101 1.5 14.4124 1.5 23.1226C1.5 39.0673 14.4799 52 30.5 52Z" fill="#181818"/>
<path d="M24 36.0713L36 36.0713" stroke="#181818"/>
</svg>
