<svg width="16" height="26" viewBox="0 0 16 26" fill="none" xmlns="http://www.w3.org/2000/svg">
<path d="M1.5 0.817871C1.5 0.541729 1.27614 0.317871 1 0.317871C0.723858 0.317871 0.5 0.541729 0.5 0.817871H1.5ZM4.70833 0.817871C4.70833 0.541729 4.48448 0.317871 4.20833 0.317871C3.93219 0.317871 3.70833 0.541729 3.70833 0.817871H4.70833ZM7.91667 0.817871C7.91667 0.541729 7.69281 0.317871 7.41667 0.317871C7.14052 0.317871 6.91667 0.541729 6.91667 0.817871H7.91667ZM12.2022 2.01008C13.3831 2.71656 14.5 4.00242 14.5 6.21787H15.5C15.5 3.59049 14.1428 2.00576 12.7156 1.15193L12.2022 2.01008ZM14.5 6.21787C14.5 6.22374 14.5 6.2296 14.5 6.23547C14.5 6.24134 14.5 6.24721 14.5 6.25308C14.5 6.25894 14.5 6.26482 14.5 6.27069C14.5 6.27656 14.5 6.28243 14.5 6.28831C14.5 6.29418 14.5 6.30006 14.5 6.30593C14.5 6.31181 14.5 6.31769 14.5 6.32357C14.5 6.32945 14.5 6.33533 14.5 6.34121C14.5 6.34709 14.5 6.35297 14.5 6.35886C14.5 6.36474 14.5 6.37062 14.5 6.37651C14.5 6.3824 14.5 6.38828 14.5 6.39417C14.5 6.40006 14.5 6.40595 14.5 6.41184C14.5 6.41773 14.5 6.42362 14.5 6.42951C14.5 6.4354 14.5 6.4413 14.5 6.44719C14.5 6.45309 14.5 6.45898 14.5 6.46488C14.5 6.47078 14.5 6.47667 14.5 6.48257C14.5 6.48847 14.5 6.49437 14.5 6.50027C14.5 6.50617 14.5 6.51207 14.5 6.51798C14.5 6.52388 14.5 6.52978 14.5 6.53569C14.5 6.54159 14.5 6.5475 14.5 6.55341C14.5 6.55931 14.5 6.56522 14.5 6.57113C14.5 6.57704 14.5 6.58295 14.5 6.58886C14.5 6.59477 14.5 6.60068 14.5 6.6066C14.5 6.61251 14.5 6.61842 14.5 6.62434C14.5 6.63025 14.5 6.63617 14.5 6.64208C14.5 6.648 14.5 6.65392 14.5 6.65984C14.5 6.66576 14.5 6.67167 14.5 6.67759C14.5 6.68352 14.5 6.68944 14.5 6.69536C14.5 6.70128 14.5 6.7072 14.5 6.71313C14.5 6.71905 14.5 6.72498 14.5 6.7309C14.5 6.73683 14.5 6.74275 14.5 6.74868C14.5 6.75461 14.5 6.76054 14.5 6.76647C14.5 6.7724 14.5 6.77833 14.5 6.78426C14.5 6.79019 14.5 6.79612 14.5 6.80205C14.5 6.80799 14.5 6.81392 14.5 6.81985C14.5 6.82579 14.5 6.83172 14.5 6.83766C14.5 6.84359 14.5 6.84953 14.5 6.85547C14.5 6.86141 14.5 6.86734 14.5 6.87328C14.5 6.87922 14.5 6.88516 14.5 6.8911C14.5 6.89704 14.5 6.90299 14.5 6.90893C14.5 6.91487 14.5 6.92081 14.5 6.92676C14.5 6.9327 14.5 6.93865 14.5 6.94459C14.5 6.95054 14.5 6.95648 14.5 6.96243C14.5 6.96838 14.5 6.97432 14.5 6.98027C14.5 6.98622 14.5 6.99217 14.5 6.99812C14.5 7.00407 14.5 7.01002 14.5 7.01597C14.5 7.02192 14.5 7.02787 14.5 7.03383C14.5 7.03978 14.5 7.04573 14.5 7.05169C14.5 7.05764 14.5 7.06359 14.5 7.06955C14.5 7.0755 14.5 7.08146 14.5 7.08742C14.5 7.09337 14.5 7.09933 14.5 7.10529C14.5 7.11125 14.5 7.1172 14.5 7.12316C14.5 7.12912 14.5 7.13508 14.5 7.14104C14.5 7.147 14.5 7.15297 14.5 7.15893C14.5 7.16489 14.5 7.17085 14.5 7.17681C14.5 7.18278 14.5 7.18874 14.5 7.1947C14.5 7.20067 14.5 7.20663 14.5 7.2126C14.5 7.21856 14.5 7.22453 14.5 7.23049C14.5 7.23646 14.5 7.24243 14.5 7.2484C14.5 7.25436 14.5 7.26033 14.5 7.2663C14.5 7.27227 14.5 7.27824 14.5 7.28421C14.5 7.29018 14.5 7.29615 14.5 7.30212C14.5 7.30809 14.5 7.31406 14.5 7.32003C14.5 7.326 14.5 7.33198 14.5 7.33795C14.5 7.34392 14.5 7.3499 14.5 7.35587C14.5 7.36184 14.5 7.36782 14.5 7.37379C14.5 7.37977 14.5 7.38574 14.5 7.39172C14.5 7.39769 14.5 7.40367 14.5 7.40965C14.5 7.41562 14.5 7.4216 14.5 7.42758C14.5 7.43355 14.5 7.43953 14.5 7.44551C14.5 7.45149 14.5 7.45747 14.5 7.46345C14.5 7.46943 14.5 7.47541 14.5 7.48139C14.5 7.48737 14.5 7.49335 14.5 7.49933C14.5 7.50531 14.5 7.51129 14.5 7.51727C14.5 7.52325 14.5 7.52923 14.5 7.53522C14.5 7.5412 14.5 7.54718 14.5 7.55316C14.5 7.55915 14.5 7.56513 14.5 7.57112C14.5 7.5771 14.5 7.58308 14.5 7.58907C14.5 7.59505 14.5 7.60104 14.5 7.60702C14.5 7.61301 14.5 7.61899 14.5 7.62498C14.5 7.63096 14.5 7.63695 14.5 7.64294C14.5 7.64892 14.5 7.65491 14.5 7.6609C14.5 7.66688 14.5 7.67287 14.5 7.67886C14.5 7.68485 14.5 7.69084 14.5 7.69682C14.5 7.70281 14.5 7.7088 14.5 7.71479C14.5 7.72078 14.5 7.72677 14.5 7.73276C14.5 7.73875 14.5 7.74474 14.5 7.75072C14.5 7.75671 14.5 7.7627 14.5 7.76869C14.5 7.77468 14.5 7.78068 14.5 7.78667C14.5 7.79266 14.5 7.79865 14.5 7.80464C14.5 7.81063 14.5 7.81662 14.5 7.82261C14.5 7.8286 14.5 7.8346 14.5 7.84059C14.5 7.84658 14.5 7.85257 14.5 7.85856C14.5 7.86456 14.5 7.87055 14.5 7.87654C14.5 7.88253 14.5 7.88853 14.5 7.89452C14.5 7.90051 14.5 7.9065 14.5 7.9125C14.5 7.91849 14.5 7.92448 14.5 7.93048C14.5 7.93647 14.5 7.94246 14.5 7.94846C14.5 7.95445 14.5 7.96045 14.5 7.96644C14.5 7.97243 14.5 7.97843 14.5 7.98442C14.5 7.99042 14.5 7.99641 14.5 8.0024C14.5 8.0084 14.5 8.01439 14.5 8.02039C14.5 8.02638 14.5 8.03238 14.5 8.03837C14.5 8.04436 14.5 8.05036 14.5 8.05635C14.5 8.06235 14.5 8.06834 14.5 8.07434C14.5 8.08033 14.5 8.08633 14.5 8.09232C14.5 8.09832 14.5 8.10431 14.5 8.11031C14.5 8.1163 14.5 8.12229 14.5 8.12829C14.5 8.13428 14.5 8.14028 14.5 8.14627C14.5 8.15227 14.5 8.15826 14.5 8.16426C14.5 8.17025 14.5 8.17625 14.5 8.18224C14.5 8.18824 14.5 8.19423 14.5 8.20023C14.5 8.20622 14.5 8.21222 14.5 8.21821C14.5 8.2242 14.5 8.2302 14.5 8.23619C14.5 8.24219 14.5 8.24818 14.5 8.25418C14.5 8.26017 14.5 8.26616 14.5 8.27216C14.5 8.27815 14.5 8.28415 14.5 8.29014C14.5 8.29613 14.5 8.30213 14.5 8.30812C14.5 8.31412 14.5 8.32011 14.5 8.3261C14.5 8.3321 14.5 8.33809 14.5 8.34408C14.5 8.35008 14.5 8.35607 14.5 8.36206C14.5 8.36805 14.5 8.37405 14.5 8.38004C14.5 8.38603 14.5 8.39202 14.5 8.39802C14.5 8.40401 14.5 8.41 14.5 8.41599C14.5 8.42199 14.5 8.42798 14.5 8.43397C14.5 8.43996 14.5 8.44595 14.5 8.45194C14.5 8.45793 14.5 8.46392 14.5 8.46991C14.5 8.47591 14.5 8.4819 14.5 8.48789C14.5 8.49388 14.5 8.49987 14.5 8.50586C14.5 8.51185 14.5 8.51784 14.5 8.52383C14.5 8.52981 14.5 8.5358 14.5 8.54179C14.5 8.54778 14.5 8.55377 14.5 8.55976C14.5 8.56575 14.5 8.57173 14.5 8.57772C14.5 8.58371 14.5 8.5897 14.5 8.59568C14.5 8.60167 14.5 8.60766 14.5 8.61365C14.5 8.61963 14.5 8.62562 14.5 8.6316C14.5 8.63759 14.5 8.64358 14.5 8.64956C14.5 8.65555 14.5 8.66153 14.5 8.66752C14.5 8.6735 14.5 8.67948 14.5 8.68547C14.5 8.69145 14.5 8.69744 14.5 8.70342C14.5 8.7094 14.5 8.71539 14.5 8.72137C14.5 8.72735 14.5 8.73333 14.5 8.73931C14.5 8.7453 14.5 8.75128 14.5 8.75726C14.5 8.76324 14.5 8.76922 14.5 8.7752C14.5 8.78118 14.5 8.78716 14.5 8.79314C14.5 8.79912 14.5 8.8051 14.5 8.81108C14.5 8.81705 14.5 8.82303 14.5 8.82901C14.5 8.83499 14.5 8.84096 14.5 8.84694C14.5 8.85292 14.5 8.85889 14.5 8.86487C14.5 8.87085 14.5 8.87682 14.5 8.8828C14.5 8.88877 14.5 8.89474 14.5 8.90072C14.5 8.90669 14.5 8.91267 14.5 8.91864C14.5 8.92461 14.5 8.93058 14.5 8.93656C14.5 8.94253 14.5 8.9485 14.5 8.95447C14.5 8.96044 14.5 8.96641 14.5 8.97238C14.5 8.97835 14.5 8.98432 14.5 8.99029C14.5 8.99626 14.5 9.00223 14.5 9.00819C14.5 9.01416 14.5 9.02013 14.5 9.0261C14.5 9.03206 14.5 9.03803 14.5 9.04399C14.5 9.04996 14.5 9.05592 14.5 9.06189C14.5 9.06785 14.5 9.07382 14.5 9.07978C14.5 9.08574 14.5 9.0917 14.5 9.09767C14.5 9.10363 14.5 9.10959 14.5 9.11555C14.5 9.12151 14.5 9.12747 14.5 9.13343C14.5 9.13939 14.5 9.14535 14.5 9.15131C14.5 9.15726 14.5 9.16322 14.5 9.16918C14.5 9.17513 14.5 9.18109 14.5 9.18705C14.5 9.193 14.5 9.19896 14.5 9.20491C14.5 9.21086 14.5 9.21682 14.5 9.22277C14.5 9.22872 14.5 9.23468 14.5 9.24063C14.5 9.24658 14.5 9.25253 14.5 9.25848C14.5 9.26443 14.5 9.27038 14.5 9.27633C14.5 9.28227 14.5 9.28822 14.5 9.29417C14.5 9.30012 14.5 9.30606 14.5 9.31201C14.5 9.31795 14.5 9.3239 14.5 9.32984C14.5 9.33579 14.5 9.34173 14.5 9.34767C14.5 9.35361 14.5 9.35956 14.5 9.3655C14.5 9.37144 14.5 9.37738 14.5 9.38332C14.5 9.38926 14.5 9.3952 14.5 9.40113C14.5 9.40707 14.5 9.41301 14.5 9.41894C14.5 9.42488 14.5 9.43082 14.5 9.43675C14.5 9.44268 14.5 9.44862 14.5 9.45455C14.5 9.46048 14.5 9.46642 14.5 9.47235C14.5 9.47828 14.5 9.48421 14.5 9.49014C14.5 9.49607 14.5 9.502 14.5 9.50792C14.5 9.51385 14.5 9.51978 14.5 9.5257C14.5 9.53163 14.5 9.53756 14.5 9.54348C14.5 9.5494 14.5 9.55533 14.5 9.56125C14.5 9.56717 14.5 9.57309 14.5 9.57901C14.5 9.58493 14.5 9.59085 14.5 9.59677C14.5 9.60269 14.5 9.60861 14.5 9.61453C14.5 9.62044 14.5 9.62636 14.5 9.63227C14.5 9.63819 14.5 9.6441 14.5 9.65002C14.5 9.65593 14.5 9.66184 14.5 9.66775C14.5 9.67366 14.5 9.67957 14.5 9.68548C14.5 9.69139 14.5 9.6973 14.5 9.70321C14.5 9.70911 14.5 9.71502 14.5 9.72093C14.5 9.72683 14.5 9.73273 14.5 9.73864C14.5 9.74454 14.5 9.75044 14.5 9.75634C14.5 9.76225 14.5 9.76815 14.5 9.77404C14.5 9.77994 14.5 9.78584 14.5 9.79174C14.5 9.79764 14.5 9.80353 14.5 9.80943C14.5 9.81532 14.5 9.82121 14.5 9.82711C14.5 9.833 14.5 9.83889 14.5 9.84478C14.5 9.85067 14.5 9.85656 14.5 9.86245C14.5 9.86834 14.5 9.87423 14.5 9.88011C14.5 9.886 14.5 9.89188 14.5 9.89777C14.5 9.90365 14.5 9.90953 14.5 9.91541C14.5 9.9213 14.5 9.92718 14.5 9.93306C14.5 9.93894 14.5 9.94481 14.5 9.95069C14.5 9.95657 14.5 9.96244 14.5 9.96832C14.5 9.97419 14.5 9.98007 14.5 9.98594C14.5 9.99181 14.5 9.99768 14.5 10.0036C14.5 10.0094 14.5 10.0153 14.5 10.0212C14.5 10.027 14.5 10.0329 14.5 10.0388C14.5 10.0446 14.5 10.0505 14.5 10.0564C14.5 10.0622 14.5 10.0681 14.5 10.0739C14.5 10.0798 14.5 10.0857 14.5 10.0915C14.5 10.0974 14.5 10.1032 14.5 10.1091C14.5 10.1149 14.5 10.1208 14.5 10.1266C14.5 10.1325 14.5 10.1383 14.5 10.1442C14.5 10.15 14.5 10.1559 14.5 10.1617C14.5 10.1676 14.5 10.1734 14.5 10.1793C14.5 10.1851 14.5 10.191 14.5 10.1968C14.5 10.2027 14.5 10.2085 14.5 10.2143C14.5 10.2202 14.5 10.226 14.5 10.2319C14.5 10.2377 14.5 10.2435 14.5 10.2494C14.5 10.2552 14.5 10.261 14.5 10.2669C14.5 10.2727 14.5 10.2785 14.5 10.2844C14.5 10.2902 14.5 10.296 14.5 10.3018C14.5 10.3077 14.5 10.3135 14.5 10.3193C14.5 10.3251 14.5 10.331 14.5 10.3368C14.5 10.3426 14.5 10.3484 14.5 10.3542C14.5 10.3601 14.5 10.3659 14.5 10.3717C14.5 10.3775 14.5 10.3833 14.5 10.3891C14.5 10.3949 14.5 10.4008 14.5 10.4066C14.5 10.4124 14.5 10.4182 14.5 10.424C14.5 10.4298 14.5 10.4356 14.5 10.4414C14.5 10.4472 14.5 10.453 14.5 10.4588C14.5 10.4646 14.5 10.4704 14.5 10.4762C14.5 10.482 14.5 10.4878 14.5 10.4936C14.5 10.4994 14.5 10.5052 14.5 10.511C14.5 10.5168 14.5 10.5226 14.5 10.5283C14.5 10.5341 14.5 10.5399 14.5 10.5457C14.5 10.5515 14.5 10.5573 14.5 10.5631C14.5 10.5688 14.5 10.5746 14.5 10.5804C14.5 10.5862 14.5 10.592 14.5 10.5977C14.5 10.6035 14.5 10.6093 14.5 10.6151C14.5 10.6208 14.5 10.6266 14.5 10.6324C14.5 10.6381 14.5 10.6439 14.5 10.6497C14.5 10.6554 14.5 10.6612 14.5 10.667C14.5 10.6727 14.5 10.6785 14.5 10.6842C14.5 10.69 14.5 10.6958 14.5 10.7015C14.5 10.7073 14.5 10.713 14.5 10.7188C14.5 10.7245 14.5 10.7303 14.5 10.736C14.5 10.7418 14.5 10.7475 14.5 10.7533C14.5 10.759 14.5 10.7648 14.5 10.7705C14.5 10.7763 14.5 10.782 14.5 10.7878C14.5 10.7935 14.5 10.7992 14.5 10.805C14.5 10.8107 14.5 10.8164 14.5 10.8222C14.5 10.8279 14.5 10.8336 14.5 10.8394C14.5 10.8451 14.5 10.8508 14.5 10.8565C14.5 10.8623 14.5 10.868 14.5 10.8737C14.5 10.8794 14.5 10.8852 14.5 10.8909C14.5 10.8966 14.5 10.9023 14.5 10.908C14.5 10.9138 14.5 10.9195 14.5 10.9252C14.5 10.9309 14.5 10.9366 14.5 10.9423C14.5 10.948 14.5 10.9537 14.5 10.9594C14.5 10.9651 14.5 10.9708 14.5 10.9765C14.5 10.9822 14.5 10.9879 14.5 10.9936C14.5 10.9993 14.5 11.005 14.5 11.0107C14.5 11.0164 14.5 11.0221 14.5 11.0278C14.5 11.0335 14.5 11.0392 14.5 11.0449C14.5 11.0506 14.5 11.0562 14.5 11.0619C14.5 11.0676 14.5 11.0733 14.5 11.079C14.5 11.0846 14.5 11.0903 14.5 11.096C14.5 11.1017 14.5 11.1073 14.5 11.113C14.5 11.1187 14.5 11.1244 14.5 11.13C14.5 11.1357 14.5 11.1414 14.5 11.147C14.5 11.1527 14.5 11.1583 14.5 11.164C14.5 11.1697 14.5 11.1753 14.5 11.181C14.5 11.1866 14.5 11.1923 14.5 11.1979C14.5 11.2036 14.5 11.2092 14.5 11.2149C14.5 11.2205 14.5 11.2262 14.5 11.2318C14.5 11.2375 14.5 11.2431 14.5 11.2488C14.5 11.2544 14.5 11.26 14.5 11.2657C14.5 11.2713 14.5 11.2769 14.5 11.2826C14.5 11.2882 14.5 11.2938 14.5 11.2995C14.5 11.3051 14.5 11.3107 14.5 11.3163C14.5 11.322 14.5 11.3276 14.5 11.3332C14.5 11.3388 14.5 11.3444 14.5 11.3501C14.5 11.3557 14.5 11.3613 14.5 11.3669C14.5 11.3725 14.5 11.3781 14.5 11.3837C14.5 11.3893 14.5 11.3949 14.5 11.4005C14.5 11.4061 14.5 11.4117 14.5 11.4173C14.5 11.4229 14.5 11.4285 14.5 11.4341C14.5 11.4397 14.5 11.4453 14.5 11.4509C14.5 11.4565 14.5 11.4621 14.5 11.4677C14.5 11.4733 14.5 11.4789 14.5 11.4844C14.5 11.49 14.5 11.4956 14.5 11.5012C14.5 11.5067 14.5 11.5123 14.5 11.5179C14.5 11.5235 14.5 11.529 14.5 11.5346C14.5 11.5402 14.5 11.5457 14.5 11.5513C14.5 11.5569 14.5 11.5624 14.5 11.568C14.5 11.5736 14.5 11.5791 14.5 11.5847C14.5 11.5902 14.5 11.5958 14.5 11.6013C14.5 11.6069 14.5 11.6124 14.5 11.618C14.5 11.6235 14.5 11.6291 14.5 11.6346C14.5 11.6401 14.5 11.6457 14.5 11.6512C14.5 11.6568 14.5 11.6623 14.5 11.6678C14.5 11.6734 14.5 11.6789 14.5 11.6844C14.5 11.6899 14.5 11.6955 14.5 11.701C14.5 11.7065 14.5 11.712 14.5 11.7176C14.5 11.7231 14.5 11.7286 14.5 11.7341C14.5 11.7396 14.5 11.7451 14.5 11.7506C14.5 11.7562 14.5 11.7617 14.5 11.7672C14.5 11.7727 14.5 11.7782 14.5 11.7837C14.5 11.7892 14.5 11.7947 14.5 11.8002C14.5 11.8057 14.5 11.8112 14.5 11.8167C14.5 11.8221 14.5 11.8276 14.5 11.8331C14.5 11.8386 14.5 11.8441 14.5 11.8496C14.5 11.855 14.5 11.8605 14.5 11.866C14.5 11.8715 14.5 11.877 14.5 11.8824C14.5 11.8879 14.5 11.8934 14.5 11.8988C14.5 11.9043 14.5 11.9098 14.5 11.9152C14.5 11.9207 14.5 11.9261 14.5 11.9316C14.5 11.9371 14.5 11.9425 14.5 11.948C14.5 11.9534 14.5 11.9589 14.5 11.9643C14.5 11.9698 14.5 11.9752 14.5 11.9806C14.5 11.9861 14.5 11.9915 14.5 11.997C14.5 12.0024 14.5 12.0078 14.5 12.0133C14.5 12.0187 14.5 12.0241 14.5 12.0296C14.5 12.035 14.5 12.0404 14.5 12.0458C14.5 12.0512 14.5 12.0567 14.5 12.0621C14.5 12.0675 14.5 12.0729 14.5 12.0783C14.5 12.0837 14.5 12.0891 14.5 12.0945C14.5 12.1 14.5 12.1054 14.5 12.1108C14.5 12.1162 14.5 12.1216 14.5 12.127C14.5 12.1323 14.5 12.1377 14.5 12.1431C14.5 12.1485 14.5 12.1539 14.5 12.1593C14.5 12.1647 14.5 12.1701 14.5 12.1754C14.5 12.1808 14.5 12.1862 14.5 12.1916C14.5 12.197 14.5 12.2023 14.5 12.2077C14.5 12.2131 14.5 12.2184 14.5 12.2238C14.5 12.2292 14.5 12.2345 14.5 12.2399C14.5 12.2452 14.5 12.2506 14.5 12.2559C14.5 12.2613 14.5 12.2667 14.5 12.272C14.5 12.2773 14.5 12.2827 14.5 12.288C14.5 12.2934 14.5 12.2987 14.5 12.3041C14.5 12.3094 14.5 12.3147 14.5 12.3201C14.5 12.3254 14.5 12.3307 14.5 12.336C14.5 12.3414 14.5 12.3467 14.5 12.352C14.5 12.3573 14.5 12.3627 14.5 12.368C14.5 12.3733 14.5 12.3786 14.5 12.3839C14.5 12.3892 14.5 12.3945 14.5 12.3998C14.5 12.4051 14.5 12.4104 14.5 12.4157C14.5 12.421 14.5 12.4263 14.5 12.4316C14.5 12.4369 14.5 12.4422 14.5 12.4475C14.5 12.4528 14.5 12.4581 14.5 12.4633C14.5 12.4686 14.5 12.4739 14.5 12.4792C14.5 12.4844 14.5 12.4897 14.5 12.495C14.5 12.5003 14.5 12.5055 14.5 12.5108C14.5 12.5161 14.5 12.5213 14.5 12.5266C14.5 12.5318 14.5 12.5371 14.5 12.5423C14.5 12.5476 14.5 12.5528 14.5 12.5581C14.5 12.5633 14.5 12.5686 14.5 12.5738C14.5 12.5791 14.5 12.5843 14.5 12.5895C14.5 12.5948 14.5 12.6 14.5 12.6052C14.5 12.6105 14.5 12.6157 14.5 12.6209C14.5 12.6261 14.5 12.6314 14.5 12.6366C14.5 12.6418 14.5 12.647 14.5 12.6522C14.5 12.6574 14.5 12.6626 14.5 12.6678C14.5 12.673 14.5 12.6783 14.5 12.6835C14.5 12.6887 14.5 12.6938 14.5 12.699C14.5 12.7042 14.5 12.7094 14.5 12.7146C14.5 12.7198 14.5 12.725 14.5 12.7302C14.5 12.7353 14.5 12.7405 14.5 12.7457C14.5 12.7509 14.5 12.756 14.5 12.7612C14.5 12.7664 14.5 12.7716 14.5 12.7767C14.5 12.7819 14.5 12.787 14.5 12.7922C14.5 12.7974 14.5 12.8025 14.5 12.8077C14.5 12.8128 14.5 12.818 14.5 12.8231C14.5 12.8282 14.5 12.8334 14.5 12.8385C14.5 12.8437 14.5 12.8488 14.5 12.8539C14.5 12.8591 14.5 12.8642 14.5 12.8693C14.5 12.8744 14.5 12.8796 14.5 12.8847C14.5 12.8898 14.5 12.8949 14.5 12.9C14.5 12.9051 14.5 12.9103 14.5 12.9154C14.5 12.9205 14.5 12.9256 14.5 12.9307C14.5 12.9358 14.5 12.9409 14.5 12.946C14.5 12.9511 14.5 12.9562 14.5 12.9612C14.5 12.9663 14.5 12.9714 14.5 12.9765C14.5 12.9816 14.5 12.9867 14.5 12.9917C14.5 12.9968 14.5 13.0019 14.5 13.0069C14.5 13.012 14.5 13.0171 14.5 13.0221C14.5 13.0272 14.5 13.0323 14.5 13.0373C14.5 13.0424 14.5 13.0474 14.5 13.0525C14.5 13.0575 14.5 13.0626 14.5 13.0676C14.5 13.0727 14.5 13.0777 14.5 13.0827C14.5 13.0878 14.5 13.0928 14.5 13.0978C14.5 13.1029 14.5 13.1079 14.5 13.1129C14.5 13.1179 14.5 13.1229 14.5 13.128C14.5 13.133 14.5 13.138 14.5 13.143C14.5 13.148 14.5 13.153 14.5 13.158C14.5 13.163 14.5 13.168 14.5 13.173C14.5 13.178 14.5 13.183 14.5 13.188C14.5 13.193 14.5 13.198 14.5 13.2029C14.5 13.2079 14.5 13.2129 14.5 13.2179C14.5 13.2229 14.5 13.2278 14.5 13.2328C14.5 13.2378 14.5 13.2427 14.5 13.2477C14.5 13.2527 14.5 13.2576 14.5 13.2626C14.5 13.2675 14.5 13.2725 14.5 13.2774C14.5 13.2824 14.5 13.2873 14.5 13.2923C14.5 13.2972 14.5 13.3021 14.5 13.3071C14.5 13.312 14.5 13.3169 14.5 13.3219C14.5 13.3268 14.5 13.3317 14.5 13.3366C14.5 13.3416 14.5 13.3465 14.5 13.3514C14.5 13.3563 14.5 13.3612 14.5 13.3661C14.5 13.371 14.5 13.3759 14.5 13.3808C14.5 13.3857 14.5 13.3906 14.5 13.3955C14.5 13.4004 14.5 13.4053 14.5 13.4102C14.5 13.4151 14.5 13.42 14.5 13.4248C14.5 13.4297 14.5 13.4346 14.5 13.4395C14.5 13.4443 14.5 13.4492 14.5 13.4541C14.5 13.4589 14.5 13.4638 14.5 13.4686C14.5 13.4735 14.5 13.4783 14.5 13.4832C14.5 13.488 14.5 13.4929 14.5 13.4977C14.5 13.5026 14.5 13.5074 14.5 13.5122C14.5 13.5171 14.5 13.5219 14.5 13.5267C14.5 13.5316 14.5 13.5364 14.5 13.5412C14.5 13.546 14.5 13.5509 14.5 13.5557C14.5 13.5605 14.5 13.5653 14.5 13.5701C14.5 13.5749 14.5 13.5797 14.5 13.5845C14.5 13.5893 14.5 13.5941 14.5 13.5989C14.5 13.6037 14.5 13.6085 14.5 13.6132C14.5 13.618 14.5 13.6228 14.5 13.6276C14.5 13.6324 14.5 13.6371 14.5 13.6419C14.5 13.6467 14.5 13.6514 14.5 13.6562C14.5 13.661 14.5 13.6657 14.5 13.6705C14.5 13.6752 14.5 13.68 14.5 13.6847C14.5 13.6895 14.5 13.6942 14.5 13.699C14.5 13.7037 14.5 13.7084 14.5 13.7132C14.5 13.7179 14.5 13.7226 14.5 13.7273C14.5 13.7321 14.5 13.7368 14.5 13.7415C14.5 13.7462 14.5 13.7509 14.5 13.7556C14.5 13.7603 14.5 13.7651 14.5 13.7698C14.5 13.7745 14.5 13.7792 14.5 13.7838C14.5 13.7885 14.5 13.7932 14.5 13.7979C14.5 13.8026 14.5 13.8073 14.5 13.812C14.5 13.8166 14.5 13.8213 14.5 13.826C14.5 13.8307 14.5 13.8353 14.5 13.84C14.5 13.8446 14.5 13.8493 14.5 13.854C14.5 13.8586 14.5 13.8633 14.5 13.8679C14.5 13.8726 14.5 13.8772 14.5 13.8818C14.5 13.8865 14.5 13.8911 14.5 13.8957C14.5 13.9004 14.5 13.905 14.5 13.9096C14.5 13.9142 14.5 13.9189 14.5 13.9235C14.5 13.9281 14.5 13.9327 14.5 13.9373C14.5 13.9419 14.5 13.9465 14.5 13.9511C14.5 13.9557 14.5 13.9603 14.5 13.9649C14.5 13.9695 14.5 13.9741 14.5 13.9787C14.5 13.9833 14.5 13.9878 14.5 13.9924C14.5 13.997 14.5 14.0016 14.5 14.0061C14.5 14.0107 14.5 14.0153 14.5 14.0198C14.5 14.0244 14.5 14.0289 14.5 14.0335C14.5 14.038 14.5 14.0426 14.5 14.0471C14.5 14.0517 14.5 14.0562 14.5 14.0607C14.5 14.0653 14.5 14.0698 14.5 14.0743C14.5 14.0789 14.5 14.0834 14.5 14.0879C14.5 14.0924 14.5 14.0969 14.5 14.1014C14.5 14.106 14.5 14.1105 14.5 14.115C14.5 14.1195 14.5 14.124 14.5 14.1285C14.5 14.133 14.5 14.1374 14.5 14.1419C14.5 14.1464 14.5 14.1509 14.5 14.1554C14.5 14.1599 14.5 14.1643 14.5 14.1688C14.5 14.1733 14.5 14.1777 14.5 14.1822C14.5 14.1867 14.5 14.1911 14.5 14.1956C14.5 14.2 14.5 14.2045 14.5 14.2089C14.5 14.2134 14.5 14.2178 14.5 14.2222C14.5 14.2267 14.5 14.2311 14.5 14.2355C14.5 14.24 14.5 14.2444 14.5 14.2488C14.5 14.2532 14.5 14.2576 14.5 14.262C14.5 14.2665 14.5 14.2709 14.5 14.2753C14.5 14.2797 14.5 14.2841 14.5 14.2885C14.5 14.2928 14.5 14.2972 14.5 14.3016C14.5 14.306 14.5 14.3104 14.5 14.3148C14.5 14.3191 14.5 14.3235 14.5 14.3279C14.5 14.3322 14.5 14.3366 14.5 14.341C14.5 14.3453 14.5 14.3497 14.5 14.354C14.5 14.3584 14.5 14.3627 14.5 14.3671C14.5 14.3714 14.5 14.3758 14.5 14.3801C14.5 14.3844 14.5 14.3888 14.5 14.3931C14.5 14.3974 14.5 14.4017 14.5 14.406C14.5 14.4104 14.5 14.4147 14.5 14.419C14.5 14.4233 14.5 14.4276 14.5 14.4319C14.5 14.4362 14.5 14.4405 14.5 14.4448C14.5 14.4491 14.5 14.4533 14.5 14.4576C14.5 14.4619 14.5 14.4662 14.5 14.4704C14.5 14.4747 14.5 14.479 14.5 14.4833C14.5 14.4875 14.5 14.4918 14.5 14.496C14.5 14.5003 14.5 14.5045 14.5 14.5088C14.5 14.513 14.5 14.5173 14.5 14.5215C14.5 14.5257 14.5 14.53 14.5 14.5342C14.5 14.5384 14.5 14.5426 14.5 14.5469C14.5 14.5511 14.5 14.5553 14.5 14.5595C14.5 14.5637 14.5 14.5679 14.5 14.5721C14.5 14.5763 14.5 14.5805 14.5 14.5847C14.5 14.5889 14.5 14.5931 14.5 14.5973C14.5 14.6015 14.5 14.6056 14.5 14.6098C14.5 14.614 14.5 14.6182 14.5 14.6223C14.5 14.6265 14.5 14.6306 14.5 14.6348C14.5 14.639 14.5 14.6431 14.5 14.6472C14.5 14.6514 14.5 14.6555 14.5 14.6597H15.5C15.5 14.6555 15.5 14.6514 15.5 14.6472C15.5 14.6431 15.5 14.639 15.5 14.6348C15.5 14.6306 15.5 14.6265 15.5 14.6223C15.5 14.6182 15.5 14.614 15.5 14.6098C15.5 14.6056 15.5 14.6015 15.5 14.5973C15.5 14.5931 15.5 14.5889 15.5 14.5847C15.5 14.5805 15.5 14.5763 15.5 14.5721C15.5 14.5679 15.5 14.5637 15.5 14.5595C15.5 14.5553 15.5 14.5511 15.5 14.5469C15.5 14.5426 15.5 14.5384 15.5 14.5342C15.5 14.53 15.5 14.5257 15.5 14.5215C15.5 14.5173 15.5 14.513 15.5 14.5088C15.5 14.5045 15.5 14.5003 15.5 14.496C15.5 14.4918 15.5 14.4875 15.5 14.4833C15.5 14.479 15.5 14.4747 15.5 14.4704C15.5 14.4662 15.5 14.4619 15.5 14.4576C15.5 14.4533 15.5 14.4491 15.5 14.4448C15.5 14.4405 15.5 14.4362 15.5 14.4319C15.5 14.4276 15.5 14.4233 15.5 14.419C15.5 14.4147 15.5 14.4104 15.5 14.406C15.5 14.4017 15.5 14.3974 15.5 14.3931C15.5 14.3888 15.5 14.3844 15.5 14.3801C15.5 14.3758 15.5 14.3714 15.5 14.3671C15.5 14.3627 15.5 14.3584 15.5 14.354C15.5 14.3497 15.5 14.3453 15.5 14.341C15.5 14.3366 15.5 14.3322 15.5 14.3279C15.5 14.3235 15.5 14.3191 15.5 14.3148C15.5 14.3104 15.5 14.306 15.5 14.3016C15.5 14.2972 15.5 14.2928 15.5 14.2885C15.5 14.2841 15.5 14.2797 15.5 14.2753C15.5 14.2709 15.5 14.2665 15.5 14.262C15.5 14.2576 15.5 14.2532 15.5 14.2488C15.5 14.2444 15.5 14.24 15.5 14.2355C15.5 14.2311 15.5 14.2267 15.5 14.2222C15.5 14.2178 15.5 14.2134 15.5 14.2089C15.5 14.2045 15.5 14.2 15.5 14.1956C15.5 14.1911 15.5 14.1867 15.5 14.1822C15.5 14.1777 15.5 14.1733 15.5 14.1688C15.5 14.1643 15.5 14.1599 15.5 14.1554C15.5 14.1509 15.5 14.1464 15.5 14.1419C15.5 14.1374 15.5 14.133 15.5 14.1285C15.5 14.124 15.5 14.1195 15.5 14.115C15.5 14.1105 15.5 14.106 15.5 14.1014C15.5 14.0969 15.5 14.0924 15.5 14.0879C15.5 14.0834 15.5 14.0789 15.5 14.0743C15.5 14.0698 15.5 14.0653 15.5 14.0607C15.5 14.0562 15.5 14.0517 15.5 14.0471C15.5 14.0426 15.5 14.038 15.5 14.0335C15.5 14.0289 15.5 14.0244 15.5 14.0198C15.5 14.0153 15.5 14.0107 15.5 14.0061C15.5 14.0016 15.5 13.997 15.5 13.9924C15.5 13.9878 15.5 13.9833 15.5 13.9787C15.5 13.9741 15.5 13.9695 15.5 13.9649C15.5 13.9603 15.5 13.9557 15.5 13.9511C15.5 13.9465 15.5 13.9419 15.5 13.9373C15.5 13.9327 15.5 13.9281 15.5 13.9235C15.5 13.9189 15.5 13.9142 15.5 13.9096C15.5 13.905 15.5 13.9004 15.5 13.8957C15.5 13.8911 15.5 13.8865 15.5 13.8818C15.5 13.8772 15.5 13.8726 15.5 13.8679C15.5 13.8633 15.5 13.8586 15.5 13.854C15.5 13.8493 15.5 13.8446 15.5 13.84C15.5 13.8353 15.5 13.8307 15.5 13.826C15.5 13.8213 15.5 13.8166 15.5 13.812C15.5 13.8073 15.5 13.8026 15.5 13.7979C15.5 13.7932 15.5 13.7885 15.5 13.7838C15.5 13.7792 15.5 13.7745 15.5 13.7698C15.5 13.7651 15.5 13.7603 15.5 13.7556C15.5 13.7509 15.5 13.7462 15.5 13.7415C15.5 13.7368 15.5 13.7321 15.5 13.7273C15.5 13.7226 15.5 13.7179 15.5 13.7132C15.5 13.7084 15.5 13.7037 15.5 13.699C15.5 13.6942 15.5 13.6895 15.5 13.6847C15.5 13.68 15.5 13.6752 15.5 13.6705C15.5 13.6657 15.5 13.661 15.5 13.6562C15.5 13.6514 15.5 13.6467 15.5 13.6419C15.5 13.6371 15.5 13.6324 15.5 13.6276C15.5 13.6228 15.5 13.618 15.5 13.6132C15.5 13.6085 15.5 13.6037 15.5 13.5989C15.5 13.5941 15.5 13.5893 15.5 13.5845C15.5 13.5797 15.5 13.5749 15.5 13.5701C15.5 13.5653 15.5 13.5605 15.5 13.5557C15.5 13.5509 15.5 13.546 15.5 13.5412C15.5 13.5364 15.5 13.5316 15.5 13.5267C15.5 13.5219 15.5 13.5171 15.5 13.5122C15.5 13.5074 15.5 13.5026 15.5 13.4977C15.5 13.4929 15.5 13.488 15.5 13.4832C15.5 13.4783 15.5 13.4735 15.5 13.4686C15.5 13.4638 15.5 13.4589 15.5 13.4541C15.5 13.4492 15.5 13.4443 15.5 13.4395C15.5 13.4346 15.5 13.4297 15.5 13.4248C15.5 13.42 15.5 13.4151 15.5 13.4102C15.5 13.4053 15.5 13.4004 15.5 13.3955C15.5 13.3906 15.5 13.3857 15.5 13.3808C15.5 13.3759 15.5 13.371 15.5 13.3661C15.5 13.3612 15.5 13.3563 15.5 13.3514C15.5 13.3465 15.5 13.3416 15.5 13.3366C15.5 13.3317 15.5 13.3268 15.5 13.3219C15.5 13.3169 15.5 13.312 15.5 13.3071C15.5 13.3021 15.5 13.2972 15.5 13.2923C15.5 13.2873 15.5 13.2824 15.5 13.2774C15.5 13.2725 15.5 13.2675 15.5 13.2626C15.5 13.2576 15.5 13.2527 15.5 13.2477C15.5 13.2427 15.5 13.2378 15.5 13.2328C15.5 13.2278 15.5 13.2229 15.5 13.2179C15.5 13.2129 15.5 13.2079 15.5 13.2029C15.5 13.198 15.5 13.193 15.5 13.188C15.5 13.183 15.5 13.178 15.5 13.173C15.5 13.168 15.5 13.163 15.5 13.158C15.5 13.153 15.5 13.148 15.5 13.143C15.5 13.138 15.5 13.133 15.5 13.128C15.5 13.1229 15.5 13.1179 15.5 13.1129C15.5 13.1079 15.5 13.1029 15.5 13.0978C15.5 13.0928 15.5 13.0878 15.5 13.0827C15.5 13.0777 15.5 13.0727 15.5 13.0676C15.5 13.0626 15.5 13.0575 15.5 13.0525C15.5 13.0474 15.5 13.0424 15.5 13.0373C15.5 13.0323 15.5 13.0272 15.5 13.0221C15.5 13.0171 15.5 13.012 15.5 13.0069C15.5 13.0019 15.5 12.9968 15.5 12.9917C15.5 12.9867 15.5 12.9816 15.5 12.9765C15.5 12.9714 15.5 12.9663 15.5 12.9612C15.5 12.9562 15.5 12.9511 15.5 12.946C15.5 12.9409 15.5 12.9358 15.5 12.9307C15.5 12.9256 15.5 12.9205 15.5 12.9154C15.5 12.9103 15.5 12.9051 15.5 12.9C15.5 12.8949 15.5 12.8898 15.5 12.8847C15.5 12.8796 15.5 12.8744 15.5 12.8693C15.5 12.8642 15.5 12.8591 15.5 12.8539C15.5 12.8488 15.5 12.8437 15.5 12.8385C15.5 12.8334 15.5 12.8282 15.5 12.8231C15.5 12.818 15.5 12.8128 15.5 12.8077C15.5 12.8025 15.5 12.7974 15.5 12.7922C15.5 12.787 15.5 12.7819 15.5 12.7767C15.5 12.7716 15.5 12.7664 15.5 12.7612C15.5 12.756 15.5 12.7509 15.5 12.7457C15.5 12.7405 15.5 12.7353 15.5 12.7302C15.5 12.725 15.5 12.7198 15.5 12.7146C15.5 12.7094 15.5 12.7042 15.5 12.699C15.5 12.6938 15.5 12.6887 15.5 12.6835C15.5 12.6783 15.5 12.673 15.5 12.6678C15.5 12.6626 15.5 12.6574 15.5 12.6522C15.5 12.647 15.5 12.6418 15.5 12.6366C15.5 12.6314 15.5 12.6261 15.5 12.6209C15.5 12.6157 15.5 12.6105 15.5 12.6052C15.5 12.6 15.5 12.5948 15.5 12.5895C15.5 12.5843 15.5 12.5791 15.5 12.5738C15.5 12.5686 15.5 12.5633 15.5 12.5581C15.5 12.5528 15.5 12.5476 15.5 12.5423C15.5 12.5371 15.5 12.5318 15.5 12.5266C15.5 12.5213 15.5 12.5161 15.5 12.5108C15.5 12.5055 15.5 12.5003 15.5 12.495C15.5 12.4897 15.5 12.4844 15.5 12.4792C15.5 12.4739 15.5 12.4686 15.5 12.4633C15.5 12.4581 15.5 12.4528 15.5 12.4475C15.5 12.4422 15.5 12.4369 15.5 12.4316C15.5 12.4263 15.5 12.421 15.5 12.4157C15.5 12.4104 15.5 12.4051 15.5 12.3998C15.5 12.3945 15.5 12.3892 15.5 12.3839C15.5 12.3786 15.5 12.3733 15.5 12.368C15.5 12.3627 15.5 12.3573 15.5 12.352C15.5 12.3467 15.5 12.3414 15.5 12.336C15.5 12.3307 15.5 12.3254 15.5 12.3201C15.5 12.3147 15.5 12.3094 15.5 12.3041C15.5 12.2987 15.5 12.2934 15.5 12.288C15.5 12.2827 15.5 12.2773 15.5 12.272C15.5 12.2667 15.5 12.2613 15.5 12.2559C15.5 12.2506 15.5 12.2452 15.5 12.2399C15.5 12.2345 15.5 12.2292 15.5 12.2238C15.5 12.2184 15.5 12.2131 15.5 12.2077C15.5 12.2023 15.5 12.197 15.5 12.1916C15.5 12.1862 15.5 12.1808 15.5 12.1754C15.5 12.1701 15.5 12.1647 15.5 12.1593C15.5 12.1539 15.5 12.1485 15.5 12.1431C15.5 12.1377 15.5 12.1323 15.5 12.127C15.5 12.1216 15.5 12.1162 15.5 12.1108C15.5 12.1054 15.5 12.1 15.5 12.0945C15.5 12.0891 15.5 12.0837 15.5 12.0783C15.5 12.0729 15.5 12.0675 15.5 12.0621C15.5 12.0567 15.5 12.0512 15.5 12.0458C15.5 12.0404 15.5 12.035 15.5 12.0296C15.5 12.0241 15.5 12.0187 15.5 12.0133C15.5 12.0078 15.5 12.0024 15.5 11.997C15.5 11.9915 15.5 11.9861 15.5 11.9806C15.5 11.9752 15.5 11.9698 15.5 11.9643C15.5 11.9589 15.5 11.9534 15.5 11.948C15.5 11.9425 15.5 11.9371 15.5 11.9316C15.5 11.9261 15.5 11.9207 15.5 11.9152C15.5 11.9098 15.5 11.9043 15.5 11.8988C15.5 11.8934 15.5 11.8879 15.5 11.8824C15.5 11.877 15.5 11.8715 15.5 11.866C15.5 11.8605 15.5 11.855 15.5 11.8496C15.5 11.8441 15.5 11.8386 15.5 11.8331C15.5 11.8276 15.5 11.8221 15.5 11.8167C15.5 11.8112 15.5 11.8057 15.5 11.8002C15.5 11.7947 15.5 11.7892 15.5 11.7837C15.5 11.7782 15.5 11.7727 15.5 11.7672C15.5 11.7617 15.5 11.7562 15.5 11.7506C15.5 11.7451 15.5 11.7396 15.5 11.7341C15.5 11.7286 15.5 11.7231 15.5 11.7176C15.5 11.712 15.5 11.7065 15.5 11.701C15.5 11.6955 15.5 11.6899 15.5 11.6844C15.5 11.6789 15.5 11.6734 15.5 11.6678C15.5 11.6623 15.5 11.6568 15.5 11.6512C15.5 11.6457 15.5 11.6401 15.5 11.6346C15.5 11.6291 15.5 11.6235 15.5 11.618C15.5 11.6124 15.5 11.6069 15.5 11.6013C15.5 11.5958 15.5 11.5902 15.5 11.5847C15.5 11.5791 15.5 11.5736 15.5 11.568C15.5 11.5624 15.5 11.5569 15.5 11.5513C15.5 11.5457 15.5 11.5402 15.5 11.5346C15.5 11.529 15.5 11.5235 15.5 11.5179C15.5 11.5123 15.5 11.5067 15.5 11.5012C15.5 11.4956 15.5 11.49 15.5 11.4844C15.5 11.4789 15.5 11.4733 15.5 11.4677C15.5 11.4621 15.5 11.4565 15.5 11.4509C15.5 11.4453 15.5 11.4397 15.5 11.4341C15.5 11.4285 15.5 11.4229 15.5 11.4173C15.5 11.4117 15.5 11.4061 15.5 11.4005C15.5 11.3949 15.5 11.3893 15.5 11.3837C15.5 11.3781 15.5 11.3725 15.5 11.3669C15.5 11.3613 15.5 11.3557 15.5 11.3501C15.5 11.3444 15.5 11.3388 15.5 11.3332C15.5 11.3276 15.5 11.322 15.5 11.3163C15.5 11.3107 15.5 11.3051 15.5 11.2995C15.5 11.2938 15.5 11.2882 15.5 11.2826C15.5 11.2769 15.5 11.2713 15.5 11.2657C15.5 11.26 15.5 11.2544 15.5 11.2488C15.5 11.2431 15.5 11.2375 15.5 11.2318C15.5 11.2262 15.5 11.2205 15.5 11.2149C15.5 11.2092 15.5 11.2036 15.5 11.1979C15.5 11.1923 15.5 11.1866 15.5 11.181C15.5 11.1753 15.5 11.1697 15.5 11.164C15.5 11.1583 15.5 11.1527 15.5 11.147C15.5 11.1414 15.5 11.1357 15.5 11.13C15.5 11.1244 15.5 11.1187 15.5 11.113C15.5 11.1073 15.5 11.1017 15.5 11.096C15.5 11.0903 15.5 11.0846 15.5 11.079C15.5 11.0733 15.5 11.0676 15.5 11.0619C15.5 11.0562 15.5 11.0506 15.5 11.0449C15.5 11.0392 15.5 11.0335 15.5 11.0278C15.5 11.0221 15.5 11.0164 15.5 11.0107C15.5 11.005 15.5 10.9993 15.5 10.9936C15.5 10.9879 15.5 10.9822 15.5 10.9765C15.5 10.9708 15.5 10.9651 15.5 10.9594C15.5 10.9537 15.5 10.948 15.5 10.9423C15.5 10.9366 15.5 10.9309 15.5 10.9252C15.5 10.9195 15.5 10.9138 15.5 10.908C15.5 10.9023 15.5 10.8966 15.5 10.8909C15.5 10.8852 15.5 10.8794 15.5 10.8737C15.5 10.868 15.5 10.8623 15.5 10.8565C15.5 10.8508 15.5 10.8451 15.5 10.8394C15.5 10.8336 15.5 10.8279 15.5 10.8222C15.5 10.8164 15.5 10.8107 15.5 10.805C15.5 10.7992 15.5 10.7935 15.5 10.7878C15.5 10.782 15.5 10.7763 15.5 10.7705C15.5 10.7648 15.5 10.759 15.5 10.7533C15.5 10.7475 15.5 10.7418 15.5 10.736C15.5 10.7303 15.5 10.7245 15.5 10.7188C15.5 10.713 15.5 10.7073 15.5 10.7015C15.5 10.6958 15.5 10.69 15.5 10.6842C15.5 10.6785 15.5 10.6727 15.5 10.667C15.5 10.6612 15.5 10.6554 15.5 10.6497C15.5 10.6439 15.5 10.6381 15.5 10.6324C15.5 10.6266 15.5 10.6208 15.5 10.6151C15.5 10.6093 15.5 10.6035 15.5 10.5977C15.5 10.592 15.5 10.5862 15.5 10.5804C15.5 10.5746 15.5 10.5688 15.5 10.5631C15.5 10.5573 15.5 10.5515 15.5 10.5457C15.5 10.5399 15.5 10.5341 15.5 10.5283C15.5 10.5226 15.5 10.5168 15.5 10.511C15.5 10.5052 15.5 10.4994 15.5 10.4936C15.5 10.4878 15.5 10.482 15.5 10.4762C15.5 10.4704 15.5 10.4646 15.5 10.4588C15.5 10.453 15.5 10.4472 15.5 10.4414C15.5 10.4356 15.5 10.4298 15.5 10.424C15.5 10.4182 15.5 10.4124 15.5 10.4066C15.5 10.4008 15.5 10.3949 15.5 10.3891C15.5 10.3833 15.5 10.3775 15.5 10.3717C15.5 10.3659 15.5 10.3601 15.5 10.3542C15.5 10.3484 15.5 10.3426 15.5 10.3368C15.5 10.331 15.5 10.3251 15.5 10.3193C15.5 10.3135 15.5 10.3077 15.5 10.3018C15.5 10.296 15.5 10.2902 15.5 10.2844C15.5 10.2785 15.5 10.2727 15.5 10.2669C15.5 10.261 15.5 10.2552 15.5 10.2494C15.5 10.2435 15.5 10.2377 15.5 10.2319C15.5 10.226 15.5 10.2202 15.5 10.2143C15.5 10.2085 15.5 10.2027 15.5 10.1968C15.5 10.191 15.5 10.1851 15.5 10.1793C15.5 10.1734 15.5 10.1676 15.5 10.1617C15.5 10.1559 15.5 10.15 15.5 10.1442C15.5 10.1383 15.5 10.1325 15.5 10.1266C15.5 10.1208 15.5 10.1149 15.5 10.1091C15.5 10.1032 15.5 10.0974 15.5 10.0915C15.5 10.0857 15.5 10.0798 15.5 10.0739C15.5 10.0681 15.5 10.0622 15.5 10.0564C15.5 10.0505 15.5 10.0446 15.5 10.0388C15.5 10.0329 15.5 10.027 15.5 10.0212C15.5 10.0153 15.5 10.0094 15.5 10.0036C15.5 9.99768 15.5 9.99181 15.5 9.98594C15.5 9.98007 15.5 9.97419 15.5 9.96832C15.5 9.96244 15.5 9.95657 15.5 9.95069C15.5 9.94481 15.5 9.93894 15.5 9.93306C15.5 9.92718 15.5 9.9213 15.5 9.91541C15.5 9.90953 15.5 9.90365 15.5 9.89777C15.5 9.89188 15.5 9.886 15.5 9.88011C15.5 9.87423 15.5 9.86834 15.5 9.86245C15.5 9.85656 15.5 9.85067 15.5 9.84478C15.5 9.83889 15.5 9.833 15.5 9.82711C15.5 9.82121 15.5 9.81532 15.5 9.80943C15.5 9.80353 15.5 9.79764 15.5 9.79174C15.5 9.78584 15.5 9.77994 15.5 9.77404C15.5 9.76815 15.5 9.76225 15.5 9.75634C15.5 9.75044 15.5 9.74454 15.5 9.73864C15.5 9.73273 15.5 9.72683 15.5 9.72093C15.5 9.71502 15.5 9.70911 15.5 9.70321C15.5 9.6973 15.5 9.69139 15.5 9.68548C15.5 9.67957 15.5 9.67366 15.5 9.66775C15.5 9.66184 15.5 9.65593 15.5 9.65002C15.5 9.6441 15.5 9.63819 15.5 9.63227C15.5 9.62636 15.5 9.62044 15.5 9.61453C15.5 9.60861 15.5 9.60269 15.5 9.59677C15.5 9.59085 15.5 9.58493 15.5 9.57901C15.5 9.57309 15.5 9.56717 15.5 9.56125C15.5 9.55533 15.5 9.5494 15.5 9.54348C15.5 9.53756 15.5 9.53163 15.5 9.5257C15.5 9.51978 15.5 9.51385 15.5 9.50792C15.5 9.502 15.5 9.49607 15.5 9.49014C15.5 9.48421 15.5 9.47828 15.5 9.47235C15.5 9.46642 15.5 9.46048 15.5 9.45455C15.5 9.44862 15.5 9.44268 15.5 9.43675C15.5 9.43082 15.5 9.42488 15.5 9.41894C15.5 9.41301 15.5 9.40707 15.5 9.40113C15.5 9.3952 15.5 9.38926 15.5 9.38332C15.5 9.37738 15.5 9.37144 15.5 9.3655C15.5 9.35956 15.5 9.35361 15.5 9.34767C15.5 9.34173 15.5 9.33579 15.5 9.32984C15.5 9.3239 15.5 9.31795 15.5 9.31201C15.5 9.30606 15.5 9.30012 15.5 9.29417C15.5 9.28822 15.5 9.28227 15.5 9.27633C15.5 9.27038 15.5 9.26443 15.5 9.25848C15.5 9.25253 15.5 9.24658 15.5 9.24063C15.5 9.23468 15.5 9.22872 15.5 9.22277C15.5 9.21682 15.5 9.21086 15.5 9.20491C15.5 9.19896 15.5 9.193 15.5 9.18705C15.5 9.18109 15.5 9.17513 15.5 9.16918C15.5 9.16322 15.5 9.15726 15.5 9.15131C15.5 9.14535 15.5 9.13939 15.5 9.13343C15.5 9.12747 15.5 9.12151 15.5 9.11555C15.5 9.10959 15.5 9.10363 15.5 9.09767C15.5 9.0917 15.5 9.08574 15.5 9.07978C15.5 9.07382 15.5 9.06785 15.5 9.06189C15.5 9.05592 15.5 9.04996 15.5 9.04399C15.5 9.03803 15.5 9.03206 15.5 9.0261C15.5 9.02013 15.5 9.01416 15.5 9.00819C15.5 9.00223 15.5 8.99626 15.5 8.99029C15.5 8.98432 15.5 8.97835 15.5 8.97238C15.5 8.96641 15.5 8.96044 15.5 8.95447C15.5 8.9485 15.5 8.94253 15.5 8.93656C15.5 8.93058 15.5 8.92461 15.5 8.91864C15.5 8.91267 15.5 8.90669 15.5 8.90072C15.5 8.89474 15.5 8.88877 15.5 8.8828C15.5 8.87682 15.5 8.87085 15.5 8.86487C15.5 8.85889 15.5 8.85292 15.5 8.84694C15.5 8.84096 15.5 8.83499 15.5 8.82901C15.5 8.82303 15.5 8.81705 15.5 8.81108C15.5 8.8051 15.5 8.79912 15.5 8.79314C15.5 8.78716 15.5 8.78118 15.5 8.7752C15.5 8.76922 15.5 8.76324 15.5 8.75726C15.5 8.75128 15.5 8.7453 15.5 8.73931C15.5 8.73333 15.5 8.72735 15.5 8.72137C15.5 8.71539 15.5 8.7094 15.5 8.70342C15.5 8.69744 15.5 8.69145 15.5 8.68547C15.5 8.67948 15.5 8.6735 15.5 8.66752C15.5 8.66153 15.5 8.65555 15.5 8.64956C15.5 8.64358 15.5 8.63759 15.5 8.6316C15.5 8.62562 15.5 8.61963 15.5 8.61365C15.5 8.60766 15.5 8.60167 15.5 8.59568C15.5 8.5897 15.5 8.58371 15.5 8.57772C15.5 8.57173 15.5 8.56575 15.5 8.55976C15.5 8.55377 15.5 8.54778 15.5 8.54179C15.5 8.5358 15.5 8.52981 15.5 8.52383C15.5 8.51784 15.5 8.51185 15.5 8.50586C15.5 8.49987 15.5 8.49388 15.5 8.48789C15.5 8.4819 15.5 8.47591 15.5 8.46991C15.5 8.46392 15.5 8.45793 15.5 8.45194C15.5 8.44595 15.5 8.43996 15.5 8.43397C15.5 8.42798 15.5 8.42199 15.5 8.41599C15.5 8.41 15.5 8.40401 15.5 8.39802C15.5 8.39202 15.5 8.38603 15.5 8.38004C15.5 8.37405 15.5 8.36805 15.5 8.36206C15.5 8.35607 15.5 8.35008 15.5 8.34408C15.5 8.33809 15.5 8.3321 15.5 8.3261C15.5 8.32011 15.5 8.31412 15.5 8.30812C15.5 8.30213 15.5 8.29613 15.5 8.29014C15.5 8.28415 15.5 8.27815 15.5 8.27216C15.5 8.26616 15.5 8.26017 15.5 8.25418C15.5 8.24818 15.5 8.24219 15.5 8.23619C15.5 8.2302 15.5 8.2242 15.5 8.21821C15.5 8.21222 15.5 8.20622 15.5 8.20023C15.5 8.19423 15.5 8.18824 15.5 8.18224C15.5 8.17625 15.5 8.17025 15.5 8.16426C15.5 8.15826 15.5 8.15227 15.5 8.14627C15.5 8.14028 15.5 8.13428 15.5 8.12829C15.5 8.12229 15.5 8.1163 15.5 8.11031C15.5 8.10431 15.5 8.09832 15.5 8.09232C15.5 8.08633 15.5 8.08033 15.5 8.07434C15.5 8.06834 15.5 8.06235 15.5 8.05635C15.5 8.05036 15.5 8.04436 15.5 8.03837C15.5 8.03238 15.5 8.02638 15.5 8.02039C15.5 8.01439 15.5 8.0084 15.5 8.0024C15.5 7.99641 15.5 7.99042 15.5 7.98442C15.5 7.97843 15.5 7.97243 15.5 7.96644C15.5 7.96045 15.5 7.95445 15.5 7.94846C15.5 7.94246 15.5 7.93647 15.5 7.93048C15.5 7.92448 15.5 7.91849 15.5 7.9125C15.5 7.9065 15.5 7.90051 15.5 7.89452C15.5 7.88853 15.5 7.88253 15.5 7.87654C15.5 7.87055 15.5 7.86456 15.5 7.85856C15.5 7.85257 15.5 7.84658 15.5 7.84059C15.5 7.8346 15.5 7.8286 15.5 7.82261C15.5 7.81662 15.5 7.81063 15.5 7.80464C15.5 7.79865 15.5 7.79266 15.5 7.78667C15.5 7.78068 15.5 7.77468 15.5 7.76869C15.5 7.7627 15.5 7.75671 15.5 7.75072C15.5 7.74474 15.5 7.73875 15.5 7.73276C15.5 7.72677 15.5 7.72078 15.5 7.71479C15.5 7.7088 15.5 7.70281 15.5 7.69682C15.5 7.69084 15.5 7.68485 15.5 7.67886C15.5 7.67287 15.5 7.66688 15.5 7.6609C15.5 7.65491 15.5 7.64892 15.5 7.64294C15.5 7.63695 15.5 7.63096 15.5 7.62498C15.5 7.61899 15.5 7.61301 15.5 7.60702C15.5 7.60104 15.5 7.59505 15.5 7.58907C15.5 7.58308 15.5 7.5771 15.5 7.57112C15.5 7.56513 15.5 7.55915 15.5 7.55316C15.5 7.54718 15.5 7.5412 15.5 7.53522C15.5 7.52923 15.5 7.52325 15.5 7.51727C15.5 7.51129 15.5 7.50531 15.5 7.49933C15.5 7.49335 15.5 7.48737 15.5 7.48139C15.5 7.47541 15.5 7.46943 15.5 7.46345C15.5 7.45747 15.5 7.45149 15.5 7.44551C15.5 7.43953 15.5 7.43355 15.5 7.42758C15.5 7.4216 15.5 7.41562 15.5 7.40965C15.5 7.40367 15.5 7.39769 15.5 7.39172C15.5 7.38574 15.5 7.37977 15.5 7.37379C15.5 7.36782 15.5 7.36184 15.5 7.35587C15.5 7.3499 15.5 7.34392 15.5 7.33795C15.5 7.33198 15.5 7.326 15.5 7.32003C15.5 7.31406 15.5 7.30809 15.5 7.30212C15.5 7.29615 15.5 7.29018 15.5 7.28421C15.5 7.27824 15.5 7.27227 15.5 7.2663C15.5 7.26033 15.5 7.25436 15.5 7.2484C15.5 7.24243 15.5 7.23646 15.5 7.23049C15.5 7.22453 15.5 7.21856 15.5 7.2126C15.5 7.20663 15.5 7.20067 15.5 7.1947C15.5 7.18874 15.5 7.18278 15.5 7.17681C15.5 7.17085 15.5 7.16489 15.5 7.15893C15.5 7.15297 15.5 7.147 15.5 7.14104C15.5 7.13508 15.5 7.12912 15.5 7.12316C15.5 7.1172 15.5 7.11125 15.5 7.10529C15.5 7.09933 15.5 7.09337 15.5 7.08742C15.5 7.08146 15.5 7.0755 15.5 7.06955C15.5 7.06359 15.5 7.05764 15.5 7.05169C15.5 7.04573 15.5 7.03978 15.5 7.03383C15.5 7.02787 15.5 7.02192 15.5 7.01597C15.5 7.01002 15.5 7.00407 15.5 6.99812C15.5 6.99217 15.5 6.98622 15.5 6.98027C15.5 6.97432 15.5 6.96838 15.5 6.96243C15.5 6.95648 15.5 6.95054 15.5 6.94459C15.5 6.93865 15.5 6.9327 15.5 6.92676C15.5 6.92081 15.5 6.91487 15.5 6.90893C15.5 6.90299 15.5 6.89704 15.5 6.8911C15.5 6.88516 15.5 6.87922 15.5 6.87328C15.5 6.86734 15.5 6.86141 15.5 6.85547C15.5 6.84953 15.5 6.84359 15.5 6.83766C15.5 6.83172 15.5 6.82579 15.5 6.81985C15.5 6.81392 15.5 6.80799 15.5 6.80205C15.5 6.79612 15.5 6.79019 15.5 6.78426C15.5 6.77833 15.5 6.7724 15.5 6.76647C15.5 6.76054 15.5 6.75461 15.5 6.74868C15.5 6.74275 15.5 6.73683 15.5 6.7309C15.5 6.72498 15.5 6.71905 15.5 6.71313C15.5 6.7072 15.5 6.70128 15.5 6.69536C15.5 6.68944 15.5 6.68352 15.5 6.67759C15.5 6.67167 15.5 6.66576 15.5 6.65984C15.5 6.65392 15.5 6.648 15.5 6.64208C15.5 6.63617 15.5 6.63025 15.5 6.62434C15.5 6.61842 15.5 6.61251 15.5 6.6066C15.5 6.60068 15.5 6.59477 15.5 6.58886C15.5 6.58295 15.5 6.57704 15.5 6.57113C15.5 6.56522 15.5 6.55931 15.5 6.55341C15.5 6.5475 15.5 6.54159 15.5 6.53569C15.5 6.52978 15.5 6.52388 15.5 6.51798C15.5 6.51207 15.5 6.50617 15.5 6.50027C15.5 6.49437 15.5 6.48847 15.5 6.48257C15.5 6.47667 15.5 6.47078 15.5 6.46488C15.5 6.45898 15.5 6.45309 15.5 6.44719C15.5 6.4413 15.5 6.4354 15.5 6.42951C15.5 6.42362 15.5 6.41773 15.5 6.41184C15.5 6.40595 15.5 6.40006 15.5 6.39417C15.5 6.38828 15.5 6.3824 15.5 6.37651C15.5 6.37062 15.5 6.36474 15.5 6.35886C15.5 6.35297 15.5 6.34709 15.5 6.34121C15.5 6.33533 15.5 6.32945 15.5 6.32357C15.5 6.31769 15.5 6.31181 15.5 6.30593C15.5 6.30006 15.5 6.29418 15.5 6.28831C15.5 6.28243 15.5 6.27656 15.5 6.27069C15.5 6.26482 15.5 6.25894 15.5 6.25308C15.5 6.24721 15.5 6.24134 15.5 6.23547C15.5 6.2296 15.5 6.22374 15.5 6.21787H14.5ZM13.0417 16.1179V23.2137H14.0417V16.1179H13.0417ZM10.8333 23.2137V16.1179H9.83333V23.2137H10.8333ZM10.8333 16.1179V3.09148H9.83333V16.1179H10.8333ZM13.5417 15.6179H10.3333V16.6179H13.5417V15.6179ZM5.16667 12.0715V23.3595H6.16667V12.0715H5.16667ZM3.25 23.3595V12.0715H2.25V23.3595H3.25ZM1.5 8.76426V5.61787H0.5V8.76426H1.5ZM1.5 5.61787V0.817871H0.5V5.61787H1.5ZM1 6.11787H4.20833V5.11787H1V6.11787ZM4.70833 5.61787V0.817871H3.70833V5.61787H4.70833ZM4.20833 6.11787H7.41667V5.11787H4.20833V6.11787ZM7.91667 5.61787V1.41787H6.91667V5.61787H7.91667ZM7.91667 1.41787V0.817871H6.91667V1.41787H7.91667ZM6.91667 5.61787V8.76426H7.91667V5.61787H6.91667ZM3.25 12.0715C3.25 11.2452 2.83594 10.4705 2.15776 10.0055L1.59224 10.8302C2.00179 11.1111 2.25 11.5789 2.25 12.0715H3.25ZM4.20833 24.3179C3.67906 24.3179 3.25 23.8888 3.25 23.3595H2.25C2.25 24.4411 3.12678 25.3179 4.20833 25.3179V24.3179ZM5.16667 23.3595C5.16667 23.8888 4.73761 24.3179 4.20833 24.3179V25.3179C5.28989 25.3179 6.16667 24.4411 6.16667 23.3595H5.16667ZM13.0417 23.2137C13.0417 23.8235 12.5473 24.3179 11.9375 24.3179V25.3179C13.0996 25.3179 14.0417 24.3758 14.0417 23.2137H13.0417ZM6.82443 10.8302C7.50261 10.3652 7.91667 9.59057 7.91667 8.76426H6.91667C6.91667 9.25685 6.66846 9.72467 6.2589 10.0055L6.82443 10.8302ZM6.16667 12.0715C6.16667 11.5789 6.41487 11.1111 6.82443 10.8302L6.2589 10.0055C5.58072 10.4705 5.16667 11.2452 5.16667 12.0715H6.16667ZM14.5 14.6597C14.5 15.1889 14.071 15.6179 13.5417 15.6179V16.6179C14.6232 16.6179 15.5 15.7413 15.5 14.6597H14.5ZM11.9375 24.3179C11.3277 24.3179 10.8333 23.8235 10.8333 23.2137H9.83333C9.83333 24.3758 10.7754 25.3179 11.9375 25.3179V24.3179ZM2.15776 10.0055C1.74821 9.72467 1.5 9.25685 1.5 8.76426H0.5C0.5 9.59057 0.914056 10.3652 1.59224 10.8302L2.15776 10.0055ZM12.7156 1.15193C12.0099 0.729721 11.2581 0.835626 10.7063 1.25322C10.1715 1.65802 9.83333 2.3422 9.83333 3.09148H10.8333C10.8333 2.63494 11.0406 2.25435 11.3098 2.0506C11.5621 1.85964 11.8732 1.81322 12.2022 2.01008L12.7156 1.15193Z" fill="white"/>
</svg>
