<svg width="17" height="17" viewBox="0 0 17 17" fill="none" xmlns="http://www.w3.org/2000/svg">
<path fill-rule="evenodd" clip-rule="evenodd" d="M12.176 0.395508H5.218C2.55833 0.395508 0.394531 2.5593 0.394531 5.21898V12.177C0.394531 14.8366 2.55833 17.0004 5.218 17.0004H12.176C14.8357 17.0004 16.9995 14.8366 16.9995 12.177V5.21898C16.9995 2.5593 14.8357 0.395508 12.176 0.395508ZM8.69625 4.22266C6.22841 4.22266 4.2207 6.23036 4.2207 8.6982C4.2207 11.166 6.22841 13.1737 8.69625 13.1737C11.1641 13.1737 13.1718 11.166 13.1718 8.6982C13.1718 6.23036 11.1641 4.22266 8.69625 4.22266ZM12.7695 2.80859C12.3553 2.80859 12.0195 3.14438 12.0195 3.55859C12.0195 3.97281 12.3553 4.30859 12.7695 4.30859H12.7728C13.187 4.30859 13.5228 3.97281 13.5228 3.55859C13.5228 3.14438 13.187 2.80859 12.7728 2.80859H12.7695Z" fill="white"/>
</svg>
