<svg width="24" height="23" viewBox="0 0 24 23" fill="none" xmlns="http://www.w3.org/2000/svg">
<path d="M7.86238 13.432C7.86238 13.7588 7.60161 14.0146 7.29145 14.0146C6.98139 14.0146 6.7207 13.7589 6.7207 13.432C6.7207 13.1047 6.98145 12.8491 7.29145 12.8491C7.60156 12.8491 7.86238 13.1048 7.86238 13.432Z" stroke="white"/>
<path d="M17.1085 13.432C17.1085 13.7588 16.8477 14.0146 16.5375 14.0146C16.2275 14.0146 15.9668 13.7589 15.9668 13.432C15.9668 13.1047 16.2275 12.8491 16.5375 12.8491C16.8476 12.8491 17.1085 13.1048 17.1085 13.432Z" stroke="white"/>
<path d="M5.26979 4.76891L5.27035 4.76831C6.10773 3.8771 7.25036 3.35805 8.36746 3.06391C9.48138 2.77061 10.5309 2.71129 11.1362 2.71129H11.7202H11.8175C11.8223 2.71129 11.8355 2.71066 11.8566 2.70965C12.0786 2.69901 13.1718 2.64658 14.516 2.85316C16.0009 3.08137 17.6764 3.61162 18.7531 4.76686L18.755 4.7689C20.1597 6.25905 21.0809 8.40933 21.65 10.3899C22.2164 12.3613 22.414 14.0922 22.4154 14.7049C22.3445 17.1318 21.4267 19.0276 19.815 20.3267C18.19 21.6366 15.8067 22.3815 12.7423 22.3815H11.2821C8.21766 22.3815 5.82194 21.6365 4.19076 20.3262C2.57312 19.0268 1.65657 17.1318 1.60938 14.7072C1.61033 14.0718 1.80771 12.3389 2.37466 10.3717C2.94346 8.39811 3.86457 6.25956 5.26979 4.76891Z" stroke="white"/>
<path d="M19.4319 4.50697L19.4313 4.5064C18.3684 3.51762 18.2725 2.05661 19.0244 1.22023L19.0331 1.21058L19.0413 1.20049C19.3561 0.811462 19.9692 0.547246 20.7124 0.5H20.8431C21.4925 0.5 22.1067 0.745566 22.5577 1.11437C22.9994 1.53041 23.1982 2.15445 23.1668 2.83137C23.1351 3.5163 22.8684 4.19008 22.467 4.63656L22.4654 4.63838C22.1188 5.02774 21.7069 5.21948 21.1963 5.25973C20.6432 5.29606 19.9949 5.03253 19.4319 4.50697Z" stroke="white"/>
<path d="M4.6994 1.58031L4.69926 1.58042L4.70791 1.59055C5.42475 2.42988 5.32318 3.90081 4.30543 4.89003C3.75043 5.40655 3.10151 5.67845 2.44072 5.63919L2.42598 5.63832L2.41121 5.63831C1.95192 5.63819 1.54002 5.42912 1.16879 5.0569C0.775131 4.61399 0.522439 3.94833 0.501414 3.26816C0.480352 2.58675 0.69189 1.95418 1.14393 1.53469C1.58411 1.13043 2.19207 0.879883 2.89779 0.879883H3.02839C3.77131 0.926941 4.38456 1.19116 4.6994 1.58031Z" stroke="white"/>
<path d="M9.76793 15.0054V14.5054H9.26793V15.0054H9.76793ZM14.2765 15.0054H14.7765V14.5054H14.2765V15.0054ZM9.76793 15.5054H14.2765V14.5054H9.76793V15.5054ZM13.7765 15.0054C13.7765 15.1402 13.7161 15.3906 13.5059 15.6053C13.3072 15.8083 12.9288 16.0249 12.2101 16.0249V17.0249C13.1444 17.0249 13.7993 16.735 14.2204 16.3049C14.6302 15.8864 14.7765 15.377 14.7765 15.0054H13.7765ZM12.2101 16.0249C11.2194 16.0249 10.7485 15.8393 10.5285 15.6613C10.3371 15.5065 10.2679 15.3008 10.2679 15.0054H9.26793C9.26793 15.4697 9.3866 16.0238 9.89964 16.4388C10.3841 16.8307 11.1343 17.0249 12.2101 17.0249V16.0249ZM11.7101 16.5249V17.4746H12.7101V16.5249H11.7101ZM11.754 17.6797C11.9397 18.0927 12.3263 18.6579 12.9114 19.0168C13.5281 19.395 14.3384 19.5232 15.2535 19.0605L14.8023 18.1681C14.2145 18.4652 13.7725 18.3718 13.4342 18.1643C13.0644 17.9375 12.7935 17.5531 12.6661 17.2696L11.754 17.6797ZM11.754 17.2696C11.6233 17.5604 11.3573 17.9466 11.0118 18.1717C10.7013 18.3741 10.3216 18.4574 9.82495 18.1784L9.3352 19.0502C10.1911 19.531 10.9699 19.3927 11.5579 19.0095C12.1111 18.6489 12.4837 18.0853 12.6661 17.6797L11.754 17.2696Z" fill="white"/>
</svg>
