<svg width="33" height="42" viewBox="0 0 33 42" fill="none" xmlns="http://www.w3.org/2000/svg">
<path fill-rule="evenodd" clip-rule="evenodd" d="M14.6116 40.9083C14.6116 40.9083 15.5885 41.0029 16.5808 41.0029C17.5731 41.0029 18.5771 40.9083 18.5771 40.9083C23.5291 40.5262 27.7619 37.6554 30.1606 34.2769C33.8166 29.1085 33.4191 23.1509 31.8757 19.0533C30.3089 13.8448 21.4013 4.9566 18.5191 2.00038L16.4858 0.00292969L14.5729 1.81877C11.9034 4.49344 3.42931 12.9599 1.2241 19.0533C-0.226693 23.0754 -1.1684 28.4772 3.07183 34.2891C5.95408 38.6329 10.6848 40.5865 14.6116 40.9083ZM18.5771 35.7375C21.7047 35.2573 23.5336 34.2426 25.5972 31.7329C28.286 27.9119 28.0587 24.3221 27.3816 21.567L18.5771 31.1799C18.5384 31.2201 18.5191 31.2603 18.5191 31.3206L18.5771 35.7375ZM18.8479 25.911L26.1638 17.9342C24.1907 14.8372 21.2272 11.4194 18.5191 8.44302V25.7702C18.5191 25.9512 18.7318 26.0517 18.8479 25.911ZM10.2324 13.741C11.8092 11.6342 13.2242 10.0684 14.9537 8.51327L12.4547 11.0104L10.2324 13.741ZM14.5922 27.5198L14.9537 8.51327L12.4547 11.0104L10.2324 13.741C8.70187 15.2301 6.47632 19.5544 5.95403 21.0024C5.60584 21.9677 5.41583 23.3332 5.31911 24.8213L14.3214 29.0683C14.4375 29.1286 14.5922 29.0281 14.5922 28.8873V27.5198ZM5.9844 28.8873C6.38366 30.2731 6.8509 30.682 7.64323 31.9676C9.55994 34.0909 10.7538 34.9277 14.6116 35.9235V33.1105C14.6116 33.03 14.5729 32.9697 14.4955 32.9295L5.9844 28.8873Z" fill="white"/>
</svg>
