<svg width="68" height="73" viewBox="0 0 68 73" fill="none" xmlns="http://www.w3.org/2000/svg">
<path d="M68 0H0V73H68V0Z" fill="white"/>
<path d="M9.67465 52.039C9.67465 52.3644 10.0915 52.4921 11.6209 52.4921C13.3033 52.4921 13.5158 52.3832 13.5158 52.1802C13.5158 51.9637 13.4008 51.8547 11.3773 51.7915C8.64872 51.7028 7.92326 51.255 7.92326 50.2666C7.92326 49.2137 8.88693 48.665 11.4937 48.665C14.2683 48.665 15.1413 49.0093 15.1413 50.12C15.1413 50.2155 15.1413 50.311 15.1346 50.4199C14.9424 50.4078 14.6013 50.4011 14.2737 50.4011C13.934 50.4011 13.593 50.4078 13.4008 50.4199V50.2989C13.4008 49.9735 13.1693 49.8645 11.468 49.8645C9.90068 49.8645 9.67059 49.96 9.67059 50.1523C9.67059 50.3433 9.79241 50.4266 11.9444 50.5356C14.4944 50.6633 15.2767 51.0331 15.2767 52.1049C15.2767 53.221 14.3847 53.7575 11.6426 53.7575C8.84227 53.7575 7.88672 53.2923 7.88672 52.3214C7.88672 52.2071 7.89349 52.0847 7.91244 51.9583C8.13711 51.9838 8.47683 52.0027 8.79896 52.0027C9.1265 52.0027 9.43509 51.9959 9.67871 51.9838V52.039H9.67465V52.039Z" fill="#181818"/>
<path d="M23.6956 53.6024C23.7213 52.9193 23.7403 52.2564 23.747 51.4657C23.747 51.1403 23.7728 50.7893 23.7917 50.4518L23.747 50.4397C23.586 50.7584 23.4073 51.0905 23.1881 51.3716L21.4922 53.6051H20.6124L18.7122 51.0919C18.4997 50.8108 18.3142 50.48 18.1532 50.1735L18.1085 50.1856C18.1275 50.5177 18.1532 50.8485 18.1599 51.2129C18.1667 52.1058 18.1857 52.8521 18.2236 53.6051H16.502C16.5399 52.9167 16.5534 52.2201 16.5534 51.2062C16.5534 50.16 16.5412 49.4446 16.5209 48.8193H19.102C19.4552 49.3357 19.9817 50.1143 20.6435 51.065C20.8168 51.307 21.0036 51.5814 21.1836 51.8624H21.2215C21.3947 51.5746 21.5612 51.3003 21.7223 51.065C22.3381 50.1533 22.916 49.3236 23.2639 48.8193H25.5431C25.5241 49.4446 25.5052 50.1587 25.5052 51.2062C25.5052 52.2201 25.512 52.9167 25.5566 53.6051H23.6956V53.6024V53.6024Z" fill="#181818"/>
<path d="M32.974 53.6019C32.9158 53.4621 32.7615 53.1488 32.5504 52.7601C31.8831 52.7534 31.2077 52.7534 30.6948 52.7534C30.2265 52.7534 29.5389 52.7534 28.8906 52.7601C28.6727 53.1232 28.4994 53.4298 28.4155 53.6019H26.3027C27.2204 52.3392 29.0002 49.6592 29.4171 48.8174H32.0888C32.526 49.6592 34.3045 52.307 35.2614 53.6019H32.974ZM30.2968 50.4687C30.0789 50.813 29.8285 51.215 29.5836 51.6171C29.9882 51.6238 30.3929 51.6238 30.7015 51.6238C31.0358 51.6238 31.4716 51.6238 31.9088 51.6171C31.6706 51.2083 31.4202 50.8009 31.1955 50.4553C30.9966 50.1554 30.8558 49.9066 30.7462 49.7089L30.2968 50.4687Z" fill="#181818"/>
<path d="M41.4724 51.643C42.5958 51.752 43.1101 51.9308 43.3159 52.657C43.4309 53.0711 43.5338 53.4167 43.6177 53.601H42.0192C41.731 53.601 41.6795 53.5378 41.5185 52.9125C41.3777 52.3504 41.1652 52.2482 39.9972 52.2482H37.699C37.7111 52.7901 37.7369 53.2567 37.7761 53.601H35.9395C35.9516 52.9057 35.9652 52.2361 35.9652 51.2087C35.9652 50.1948 35.9584 49.5049 35.9395 48.8164H40.7172C42.4578 48.8164 43.2726 49.2696 43.2726 50.2391C43.2726 51.0621 42.7325 51.483 41.4752 51.6175V51.643H41.4724V51.643ZM40.1555 51.0567C41.1896 51.0567 41.5618 50.8846 41.5618 50.5336C41.5618 50.1706 41.1963 50.0482 40.1745 50.0482C39.6859 50.0482 38.3189 50.0549 37.6705 50.0737C37.6705 50.3992 37.6705 50.7246 37.6773 51.0366C38.1402 51.0567 39.1215 51.0567 40.1555 51.0567Z" fill="#181818"/>
<path d="M50.8272 48.8164C50.8151 49.002 50.8151 49.2817 50.8151 49.5305C50.8151 49.7725 50.8151 50.0724 50.8272 50.2768C49.9353 50.2512 49.0488 50.2512 48.2773 50.2512C48.2773 51.8528 48.2841 53.2365 48.303 53.6077C48.0662 53.5889 47.6669 53.5889 47.3975 53.5889C47.1282 53.5889 46.7492 53.5889 46.4921 53.6077C46.511 53.2379 46.5245 51.8595 46.5245 50.2512C45.7544 50.2512 44.8679 50.2512 43.9746 50.2768C43.9814 50.0724 43.9814 49.7792 43.9814 49.5305C43.9814 49.2817 43.9814 49.0074 43.9746 48.8164H50.8272Z" fill="#181818"/>
<path d="M11.9512 61.4738C8.95867 61.4738 7.73242 60.4141 7.73242 58.8516C7.73242 57.2244 9.08725 56.2549 11.9512 56.2549C14.8151 56.2549 16.17 57.2244 16.17 58.8516C16.17 60.4155 14.9437 61.4738 11.9512 61.4738ZM14.3658 58.8583C14.3658 58.073 13.7432 57.64 11.9512 57.64C10.1592 57.64 9.5366 58.0743 9.5366 58.8583C9.5366 59.6302 10.1524 60.0901 11.9512 60.0901C13.7567 60.0901 14.3658 59.6302 14.3658 58.8583Z" fill="#181818"/>
<path d="M22.8631 59.2983C23.9865 59.4072 24.5008 59.5861 24.7065 60.3122C24.8215 60.7264 24.9244 61.072 25.0083 61.2562H23.4099C23.1216 61.2562 23.0702 61.193 22.9091 60.5677C22.7683 60.0056 22.5558 59.9034 21.3878 59.9034H19.0896C19.1018 60.4453 19.1275 60.912 19.1667 61.2562H17.3301C17.3423 60.561 17.3558 59.8913 17.3558 58.864C17.3558 57.85 17.349 57.1602 17.3301 56.4717H22.1078C23.8484 56.4717 24.6632 56.9249 24.6632 57.8944C24.6632 58.7174 24.1232 59.1383 22.8658 59.2727V59.2983H22.8631V59.2983ZM21.5461 58.712C22.5802 58.712 22.9524 58.5399 22.9524 58.1889C22.9524 57.8258 22.587 57.7035 21.5651 57.7035C21.0765 57.7035 19.7095 57.7102 19.0612 57.729C19.0612 58.0544 19.0612 58.3799 19.0679 58.6918C19.5308 58.712 20.5134 58.712 21.5461 58.712Z" fill="#181818"/>
<path d="M31.849 61.2572C31.7908 61.1173 31.6365 60.804 31.4254 60.4154C30.7581 60.4087 30.0827 60.4087 29.5697 60.4087C29.1014 60.4087 28.4139 60.4087 27.7656 60.4154C27.5477 60.7785 27.3744 61.0851 27.2905 61.2572H25.1777C26.0954 59.9945 27.8752 57.3145 28.2921 56.4727H30.9638C31.401 57.3145 33.1795 59.9622 34.1364 61.2572H31.849ZM29.1718 58.124C28.9539 58.4682 28.7035 58.8703 28.4585 59.2724C28.8632 59.2791 29.2679 59.2791 29.5765 59.2791C29.9108 59.2791 30.3466 59.2791 30.7838 59.2724C30.5456 58.8636 30.2952 58.4561 30.0705 58.1105C29.8716 57.8107 29.7308 57.5619 29.6212 57.3642L29.1718 58.124Z" fill="#181818"/>
<path d="M42.5444 56.4727C42.5254 57.0603 42.5187 57.8443 42.5187 58.8596C42.5187 59.9125 42.5187 60.6198 42.5308 61.2586H40.7009C40.322 60.8309 38.3256 59.4781 37.2212 58.713C36.9518 58.522 36.6757 58.3297 36.451 58.1267C36.4768 58.5099 36.4835 58.8918 36.4957 59.2818C36.5025 60.2702 36.5079 60.9654 36.5282 61.2599H34.877C34.877 60.6158 34.8959 59.8883 34.8959 58.8676C34.8959 57.8537 34.8959 57.1262 34.877 56.4753H36.9708C37.2076 56.7819 39.4111 58.3378 40.3937 59.0088C40.6251 59.1621 40.8566 59.2831 41.0298 59.4485C41.0041 59.0976 40.9919 58.76 40.9919 58.4978C40.9919 57.6116 40.973 56.8142 40.9473 56.4753H42.5444V56.4727V56.4727Z" fill="#181818"/>
<path d="M47.9761 61.4115C45.2732 61.4115 43.6991 60.6396 43.6991 58.8336C43.6991 56.9322 45.3368 56.3203 47.88 56.3203C50.3067 56.3203 51.8091 56.7157 51.8091 58.1451C51.8091 58.1895 51.8091 58.2406 51.8023 58.285C51.6101 58.2715 51.2691 58.2661 50.9415 58.2661C50.5883 58.2661 50.254 58.2729 50.055 58.285C50.055 58.2594 50.0618 58.2339 50.0618 58.2083C50.0618 57.7619 49.4514 57.6207 47.8718 57.6207C46.2017 57.6207 45.5087 57.9595 45.5087 58.8645C45.5087 59.6875 46.157 60.1272 47.9747 60.1272C49.3295 60.1272 49.9264 59.9228 50.0997 59.4898C49.2077 59.4898 48.0058 59.4966 47.21 59.5154C47.2168 59.4199 47.2168 59.2155 47.2168 59.12C47.2168 58.9479 47.2168 58.7946 47.21 58.6736C48.2508 58.6924 49.316 58.687 50.0929 58.687C50.568 58.687 51.1784 58.6938 51.8145 58.6736C51.9323 60.3962 51.4951 61.4115 47.9761 61.4115Z" fill="#181818"/>
<path d="M59.9381 56.4727C59.9313 56.6125 59.9259 56.8357 59.9259 57.0348C59.9259 57.2392 59.9259 57.4691 59.9381 57.6022C58.6022 57.5955 56.1876 57.5901 54.9871 57.5901V58.3244C56.3744 58.3244 58.7944 58.3243 59.8677 58.3055C59.8609 58.5543 59.8555 59.0653 59.8609 59.3329C58.8079 59.3208 56.3608 59.3074 54.9871 59.3074V60.0537C56.1876 60.0537 58.6861 60.047 59.9381 60.0416C59.9259 60.1949 59.9259 60.4369 59.9259 60.6602C59.9259 60.8646 59.9259 61.0999 59.9381 61.2599H53.1504C53.1761 60.6091 53.1761 59.8883 53.1761 58.8676C53.1761 57.8537 53.1761 57.1195 53.1504 56.4753H59.9381V56.4727Z" fill="#181818"/>
<path d="M15.9697 35.9965C15.5975 35.9965 15.247 35.9548 14.9194 35.8687C13.7988 35.5729 13.0192 34.7647 12.6605 33.5289C9.81684 31.3558 8.12771 28.2872 7.90168 24.881C7.65399 21.1614 9.1374 17.5105 12.0785 14.6005L12.2734 14.4082L12.3465 14.6704C13.4766 18.7476 19.3372 25.8088 25.4088 30.4118L25.555 30.5221L25.4251 30.6512C21.9994 34.0426 18.5007 35.9965 15.9697 35.9965ZM12.115 15.016C9.36749 17.8292 7.9856 21.3147 8.2211 24.8594C8.44172 28.1903 10.1024 31.1904 12.8973 33.3084L12.9407 33.3407L12.9542 33.3918C13.2777 34.5576 13.9666 35.2878 15.0006 35.5595C15.3065 35.6401 15.6368 35.6791 15.986 35.6791C18.3897 35.6791 21.7436 33.8059 25.0678 30.5517C19.1274 26.0105 13.4184 19.1497 12.115 15.016Z" fill="#181818"/>
<path d="M15.1716 35.9087C12.0708 33.5581 9.07418 29.9381 8.49219 27.8376L8.80078 27.7529C9.36788 29.7969 12.313 33.3416 15.3651 35.6559L15.1716 35.9087Z" fill="#181818"/>
<path d="M19.6627 34.8688C14.3747 30.8601 9.26673 24.6932 8.27734 21.1189L8.58594 21.0342C9.56043 24.5506 14.617 30.6436 19.8576 34.616L19.6627 34.8688Z" fill="#181818"/>
<path d="M12.739 33.5836C11.0931 32.9099 10.051 31.6956 9.72478 30.0685C9.12654 27.0845 10.9605 23.135 14.6298 19.5029L14.8558 19.7275C11.2623 23.2843 9.4622 27.1262 10.0388 30.0053C10.342 31.5221 11.3192 32.6571 12.8608 33.2878L12.739 33.5836Z" fill="#181818"/>
<path d="M12.2299 33.8283C12.1433 33.8283 12.0716 33.8 12.0188 33.7328C11.9091 33.5902 11.7251 33.3536 13.7959 30.9801C15.1209 29.4606 17.0374 27.4556 19.3356 25.1816L19.5617 25.4062C14.4442 30.4718 12.46 32.9555 12.2976 33.5001C12.3653 33.4813 12.4925 33.4302 12.7185 33.2998L12.8796 33.5741C12.6427 33.7099 12.4072 33.8283 12.2299 33.8283Z" fill="#181818"/>
<path d="M22.0789 36.557C20.4277 36.557 18.7914 36.3244 17.2403 35.8524C16.3835 36.0366 15.6012 36.0473 14.9218 35.8685C13.7849 35.5686 12.9999 34.7416 12.6493 33.4775L12.5234 33.023L12.9011 33.3094C14.2139 34.3046 15.6946 35.0428 17.2646 35.5283C19.5452 35.0119 22.3889 33.2113 25.2028 30.4263L25.3016 30.3281L25.4125 30.4128C27.9638 32.3466 29.7937 33.3135 31.0849 33.768C32.2043 33.0983 33.2519 32.2955 34.1939 31.3622L34.3888 31.1699L34.4619 31.4322C34.9315 33.1279 34.4727 33.8594 34.0044 34.1728C33.3885 34.5856 32.3951 34.5547 31.1188 34.1163C28.3618 35.73 25.1933 36.557 22.0789 36.557ZM17.8466 35.6977C22.0383 36.8165 26.7931 36.2007 30.7276 33.9751C29.2293 33.3915 27.3846 32.2995 25.3273 30.7504C22.7164 33.3121 20.069 35.0374 17.8466 35.6977ZM13.1149 33.8608C13.4803 34.7564 14.1138 35.3279 15.003 35.5619C15.4835 35.6883 16.0195 35.7139 16.6028 35.6439C15.3644 35.2082 14.1896 34.6152 13.1149 33.8608ZM31.4815 33.8971C32.9879 34.3436 33.643 34.0316 33.823 33.9105C34.4429 33.495 34.4009 32.5712 34.2182 31.7818C33.3764 32.5873 32.4574 33.2933 31.4815 33.8971Z" fill="#181818"/>
<path d="M19.0969 37.8378C18.2199 37.8378 16.8231 37.16 15.1719 35.9081L15.3654 35.6553C17.715 37.437 19.0712 37.7181 19.5192 37.4182C19.8292 37.2098 19.7628 36.6934 19.6532 36.2967L19.9618 36.212C20.2122 37.113 19.9564 37.5083 19.6992 37.6818C19.5422 37.7867 19.3392 37.8378 19.0969 37.8378Z" fill="#181818"/>
<path d="M26.2949 38.1529C24.8318 38.1529 22.47 36.9977 19.6602 34.869L19.8537 34.6162C23.2022 37.1537 26.0445 38.3398 27.0921 37.6351C27.6781 37.2425 27.5644 36.3079 27.3668 35.5925L27.6754 35.5078C28.0842 36.9843 27.6822 37.623 27.2721 37.8987C27.0176 38.0695 26.6887 38.1529 26.2949 38.1529Z" fill="#181818"/>
<path d="M21.2595 38.1037C20.9293 38.1037 20.5991 38.0889 20.2715 38.058C17.195 37.7729 14.4976 36.1633 12.6758 33.5249L12.9397 33.3447C14.7074 35.9037 17.3223 37.465 20.3026 37.7406C23.8244 38.0674 27.5424 36.5721 30.5052 33.6392L30.7312 33.8638C27.9742 36.5922 24.5715 38.1037 21.2595 38.1037Z" fill="#181818"/>
<path d="M23.809 38.3464C23.7494 38.3464 23.6899 38.3464 23.6303 38.3451C19.5076 38.2967 15.6205 36.5915 12.6875 33.5444L12.9189 33.3252C15.7924 36.3091 19.5983 37.9793 23.6357 38.0277C23.6939 38.0277 23.7521 38.0291 23.8117 38.0291C27.5676 38.0291 31.0825 36.5942 33.7272 33.976L33.9532 34.2006C31.245 36.8793 27.6501 38.3464 23.809 38.3464Z" fill="#181818"/>
<path d="M22.0791 36.5571C18.69 36.5571 15.3632 35.5768 12.7049 33.5624L12.6616 33.5301L12.6481 33.479C11.4963 29.3238 15.2752 21.2756 21.0735 15.5376L21.1723 15.4395L21.2832 15.5242C27.4036 20.1635 33.3143 27.3 34.4607 31.4337L34.485 31.5224L34.4187 31.5883C31.1135 34.8587 26.5415 36.5571 22.0791 36.5571ZM12.9418 33.3432C18.9553 37.8642 28.4255 37.0049 34.1263 31.4296C32.9434 27.3645 27.1884 20.4324 21.2007 15.8617C15.5554 21.4961 11.8699 29.2955 12.9418 33.3432Z" fill="#181818"/>
<path d="M19.6561 36.2964C19.089 34.2524 16.1452 30.7077 13.0918 28.3934L13.2853 28.1406C16.3861 30.4912 19.3814 34.1112 19.9647 36.2117L19.6561 36.2964Z" fill="#181818"/>
<path d="M27.3694 35.5924C26.3949 32.0759 21.3383 25.983 16.0977 22.0106L16.2912 21.7578C21.5792 25.7665 26.6859 31.9334 27.6766 35.5077L27.3694 35.5924Z" fill="#181818"/>
<path d="M16.0392 34.1622C14.8198 34.1622 13.7018 33.9753 12.7422 33.5826L12.864 33.2895C17.501 35.1855 25.9236 32.1222 31.6434 26.4609L31.8694 26.6855C27.2406 31.267 20.8454 34.1622 16.0392 34.1622Z" fill="#181818"/>
<path d="M12.8837 33.5739L12.7227 33.2996C14.807 32.0934 21.1832 26.4778 26.9368 20.7842L27.1628 21.0087C21.393 26.7198 14.9884 32.3569 12.8837 33.5739Z" fill="#181818"/>
<path d="M13.0799 33.8486L12.7022 33.5622C9.83426 31.3878 8.1289 28.3043 7.90151 24.882C7.65654 21.1907 9.11557 17.5667 12.012 14.6661C11.5829 13.0336 12.0336 12.3236 12.4938 12.0143C13.8743 11.0878 17.1592 12.3989 21.2791 15.5227L21.4253 15.6329L21.2954 15.762C15.5716 21.4287 11.8293 29.3384 12.9526 33.3941L13.0799 33.8486ZM13.6226 12.0586C13.0717 12.0586 12.7848 12.2039 12.6738 12.2778C11.9822 12.7418 12.1135 13.835 12.3449 14.6715L12.3693 14.7602L12.303 14.8261C9.42957 17.6715 7.97866 21.2351 8.21958 24.8605C8.43072 28.0475 9.96148 30.9333 12.5425 33.0324C11.7643 28.8019 15.4159 21.1947 20.9394 15.6652C16.9399 12.6571 14.7392 12.0586 13.6226 12.0586Z" fill="#181818"/>
<path d="M13.0875 28.3929C10.7379 26.6124 9.3817 26.33 8.9337 26.6299C8.62375 26.8383 8.69007 27.3547 8.7997 27.7514L8.49111 27.8361C8.24072 26.9352 8.49653 26.5398 8.75369 26.3664C9.48185 25.8782 11.1737 26.5412 13.281 28.14L13.0875 28.3929Z" fill="#181818"/>
<path d="M16.0939 22.0117C12.7454 19.4741 9.90584 18.2881 8.85556 18.9927C8.26951 19.3854 8.3832 20.32 8.5808 21.0354L8.27221 21.1201C7.86347 19.6436 8.26545 19.0048 8.6769 18.7291C9.87742 17.9236 12.7238 19.0559 16.2888 21.7589L16.0939 22.0117Z" fill="#181818"/>
<path d="M12.6677 33.5256C8.56669 27.5886 9.95941 18.0773 15.7712 12.3232L15.9973 12.5478C10.2883 18.1984 8.91318 27.5281 12.9316 33.3454L12.6677 33.5256Z" fill="#181818"/>
<path d="M12.6869 33.546C6.78846 27.4221 6.72756 17.7508 12.5488 11.9873L12.7749 12.2119C7.0754 17.853 7.13901 27.3253 12.9183 33.3255L12.6869 33.546Z" fill="#181818"/>
<path d="M25.3264 30.7497L25.2154 30.665C19.095 26.0257 13.1844 18.8892 12.038 14.7555L12.0137 14.6667L12.08 14.6009C17.8945 8.84541 27.6354 7.95924 33.7924 12.6268L33.8357 12.6591L33.8492 12.7102C35.001 16.8654 31.2221 24.9136 25.4252 30.6502L25.3264 30.7497ZM12.371 14.7609C13.5539 18.826 19.3089 25.7581 25.298 30.3288C30.942 24.6944 34.6275 16.895 33.5542 12.8473C27.5407 8.32635 18.0718 9.18563 12.371 14.7609Z" fill="#181818"/>
<path d="M30.2056 24.4303C24.9176 20.4217 19.811 14.2547 18.8203 10.6804L19.1289 10.5957C20.1034 14.1122 25.1599 20.2052 30.4005 24.1761L30.2056 24.4303Z" fill="#181818"/>
<path d="M33.2145 18.0494C30.1137 15.6988 27.1171 12.0774 26.5352 9.97827L26.8437 9.89355C27.4109 11.9376 30.3547 15.4823 33.4081 17.7966L33.2145 18.0494Z" fill="#181818"/>
<path d="M14.8588 19.7281L14.6328 19.5035C20.4351 13.7602 29.0148 10.6673 33.7587 12.6077L33.6369 12.9022C29.0013 11.0048 20.5773 14.0668 14.8588 19.7281Z" fill="#181818"/>
<path d="M19.562 25.4065L19.3359 25.182C25.1044 19.4723 31.5091 13.8351 33.6137 12.6182L33.7748 12.8925C31.6891 14.0987 25.3142 19.7116 19.562 25.4065Z" fill="#181818"/>
<path d="M32.8786 34.4672C31.1922 34.4672 28.4622 33.1306 25.2126 30.6684L25.0664 30.5581L25.1963 30.429C30.9201 24.7637 34.6624 16.854 33.5377 12.7983L33.4118 12.3438L33.7895 12.6302C36.6574 14.8046 38.3628 17.8881 38.5902 21.3104C38.8352 25.0017 37.3761 28.6257 34.4797 31.525C34.9088 33.1575 34.4581 33.8675 33.9979 34.1768C33.7069 34.3717 33.3306 34.4672 32.8786 34.4672ZM25.5537 30.5245C31.5292 35.0159 33.4863 34.1351 33.8206 33.9119C34.5122 33.4479 34.3809 32.3547 34.1495 31.5182L34.1251 31.4295L34.1914 31.3636C37.0648 28.5195 38.5144 24.956 38.2735 21.3306C38.0623 18.1436 36.5316 15.2578 33.9505 13.1587C34.7288 17.3905 31.0771 24.9963 25.5537 30.5245Z" fill="#181818"/>
<path d="M36.8398 27.7153C35.3767 27.7153 33.0149 26.5602 30.2051 24.4315L30.3986 24.1787C33.7471 26.7162 36.5881 27.9023 37.637 27.1976C38.223 26.805 38.1094 25.8704 37.9117 25.155L38.2203 25.0703C38.6291 26.5468 38.2271 27.1855 37.817 27.4612C37.5626 27.6306 37.2337 27.7153 36.8398 27.7153Z" fill="#181818"/>
<path d="M37.136 19.9813C36.259 19.9813 34.8622 19.3036 33.2109 18.0516L33.4045 17.7988C35.7541 19.5792 37.1103 19.8616 37.5583 19.5618C37.8682 19.3533 37.8019 18.837 37.6923 18.4403L38.0009 18.3555C38.2513 19.2565 37.9955 19.6519 37.7383 19.8253C37.5799 19.9289 37.3783 19.9813 37.136 19.9813Z" fill="#181818"/>
<path d="M30.7182 33.866L30.4922 33.6415C36.2011 27.9909 37.5763 18.6612 33.5578 12.8452L33.8217 12.665C37.9227 18.602 36.5314 28.112 30.7182 33.866Z" fill="#181818"/>
<path d="M33.947 34.2015L33.721 33.977C39.4191 28.3358 39.3555 18.8649 33.5762 12.8647L33.8076 12.6455C39.706 18.7694 39.7683 28.4394 33.947 34.2015Z" fill="#181818"/>
<path d="M34.223 31.7801L34.1499 31.5179C33.0198 27.4406 27.1593 20.3795 21.0876 15.7764L20.9414 15.6662L21.0713 15.5371C25.0005 11.6481 29.0257 9.64851 31.5756 10.3209C32.6963 10.6167 33.4773 11.4249 33.8346 12.6607C36.6782 14.8338 38.3674 17.9025 38.5934 21.3087C38.8397 25.0268 37.3577 28.6778 34.4179 31.5878L34.223 31.7801ZM21.4273 15.6339C27.3677 20.1777 33.078 27.0372 34.3814 31.1723C37.1289 28.3604 38.5095 24.8749 38.274 21.3302C38.052 17.9993 36.3926 14.9992 33.5977 12.8812L33.5544 12.849L33.5409 12.7979C33.2174 11.632 32.5285 10.9018 31.4944 10.6302C29.0798 9.99142 25.2346 11.9077 21.4273 15.6339Z" fill="#181818"/>
<path d="M37.9123 25.1529C36.9378 21.6365 31.8813 15.5435 26.6406 11.5712L26.8342 11.3184C32.1222 15.327 37.2288 21.4939 38.2196 25.0682L37.9123 25.1529Z" fill="#181818"/>
<path d="M37.6932 18.439C37.1261 16.395 34.181 12.8503 31.1289 10.536L31.3225 10.2832C34.4233 12.6338 37.4198 16.2538 38.0018 18.3543L37.6932 18.439Z" fill="#181818"/>
<path d="M31.8667 26.6864L31.6406 26.4618C35.2327 22.9063 37.0328 19.0644 36.4563 16.1854C36.1531 14.6685 35.1772 13.5336 33.6343 12.9029L33.7561 12.6084C35.4019 13.2821 36.4441 14.4964 36.7703 16.1235C37.3685 19.1061 35.5346 23.0556 31.8667 26.6864Z" fill="#181818"/>
<path d="M27.1596 21.0078L26.9336 20.7833C32.0497 15.719 34.0339 13.2353 34.1963 12.6907C34.1287 12.7095 34.0014 12.7606 33.7754 12.891L33.6143 12.6167C33.9676 12.4123 34.3154 12.2523 34.4751 12.458C34.5848 12.6006 34.7688 12.8373 32.698 15.2107C31.373 16.7289 29.4578 18.7339 27.1596 21.0078Z" fill="#181818"/>
<path d="M21.1983 15.8588L21.0873 15.7741C18.5374 13.8404 16.7062 12.8735 15.4149 12.419C14.2956 13.0887 13.248 13.8915 12.3047 14.8247L12.1098 15.017L12.0367 14.7548C11.567 13.0591 12.0259 12.3275 12.4942 12.0142C13.11 11.6014 14.1034 11.6323 15.3798 12.0707C19.5931 9.60446 24.7783 8.97512 29.2555 10.336C30.1136 10.1518 30.896 10.141 31.574 10.3199C32.711 10.6197 33.4973 11.4467 33.8479 12.7108L33.9737 13.1653L33.5961 12.8789C32.2833 11.8838 30.8026 11.1455 29.2325 10.6601C26.9519 11.1764 24.1083 12.977 21.2958 15.7606L21.1983 15.8588ZM15.7696 12.2132C17.2678 12.7968 19.1126 13.8888 21.1699 15.4379C23.7794 12.8762 26.4268 11.1509 28.6492 10.492C24.4588 9.37316 19.7041 9.98905 15.7696 12.2132ZM13.623 12.0572C13.0721 12.0572 12.7852 12.2025 12.6742 12.2764C12.0543 12.692 12.0962 13.6158 12.279 14.4051C13.1208 13.5996 14.0412 12.895 15.017 12.2899C14.431 12.1164 13.9735 12.0572 13.623 12.0572ZM29.8944 10.5444C31.1315 10.9801 32.3063 11.5731 33.3823 12.3275C33.0168 11.4319 32.3834 10.8604 31.4942 10.6265C31.0137 10.5 30.4764 10.4745 29.8944 10.5444Z" fill="#181818"/>
<path d="M26.6408 11.5731C23.2923 9.03563 20.4501 7.84958 19.4025 8.55422C18.8164 8.94688 18.9301 9.88147 19.1277 10.5969L18.8191 10.6816C18.4104 9.20507 18.8124 8.56632 19.2225 8.29065C20.423 7.48516 23.2693 8.61742 26.8344 11.3203L26.6408 11.5731Z" fill="#181818"/>
<path d="M31.1285 10.5326C28.7789 8.75216 27.4214 8.46976 26.9747 8.77098C26.6648 8.97942 26.7311 9.49579 26.8407 9.89249L26.5321 9.9772C26.2817 9.07624 26.5375 8.68089 26.7947 8.50742C27.5215 8.02062 29.2134 8.68223 31.3221 10.2811L31.1285 10.5326Z" fill="#181818"/>
<path d="M33.5635 12.844C31.7958 10.2849 29.1809 8.7237 26.2006 8.44803C22.6775 8.1226 18.9609 9.6166 15.9995 12.5495L15.7734 12.3249C18.8039 9.32614 22.6152 7.79852 26.2304 8.13202C29.3068 8.4171 32.0043 10.0267 33.8274 12.6651L33.5635 12.844Z" fill="#181818"/>
<path d="M33.5818 12.864C30.707 9.88004 26.9024 8.20988 22.865 8.16147C19.036 8.11844 15.4601 9.55461 12.7749 12.2131L12.5488 11.9886C15.2531 9.31122 18.8479 7.84277 22.689 7.84277C22.7486 7.84277 22.8081 7.84277 22.8677 7.84412C26.9904 7.89253 30.8775 9.59765 33.8119 12.6448L33.5818 12.864Z" fill="#181818"/>
<path d="M23.2015 38.5121C22.924 38.5121 22.6317 38.5 22.411 38.4838C22.0402 38.4583 21.5218 38.4045 20.8275 38.3184C20.4187 38.2673 19.9098 38.1557 19.5985 38.0764C19.0869 37.9446 18.4021 37.7389 17.8932 37.5627C17.4533 37.4107 16.495 37.0141 15.664 36.5407C15.2796 36.3229 14.2591 35.7419 13.2129 34.8517C12.6864 34.4039 11.8878 33.6832 11.0324 32.598C10.7496 32.2403 10.5317 31.9269 10.5303 31.9242C10.311 31.6082 10.311 31.6082 9.97673 31.0798C9.71822 30.671 9.44617 30.1344 9.32977 29.9058C9.15653 29.5629 8.97381 29.1568 8.86283 28.8663C8.78026 28.6512 8.695 28.4105 8.61243 28.1711C8.49333 27.8538 8.38776 27.5297 8.29708 27.2016C8.17391 26.7255 8.01285 26.0975 7.94653 25.6175C7.88427 25.171 7.81524 24.6614 7.78276 24.2687C7.76922 24.1127 7.72727 23.5694 7.73809 23.1445L7.73945 23.0773C7.74892 22.686 7.7611 22.1992 7.78953 21.824C7.81524 21.4959 7.86938 21.044 7.92758 20.6742C8.14819 19.2919 8.50416 18.2927 8.51904 18.251C8.62462 17.9592 8.81951 17.4146 8.98328 17.03C9.10239 16.7503 9.29594 16.3442 9.50166 15.9448C9.80619 15.3518 10.2745 14.6028 10.6656 14.0783C11.1664 13.4087 11.8066 12.6623 12.2979 12.1796C13.0423 11.448 13.3333 11.2288 14.3024 10.5027C14.6394 10.2499 15.1158 9.9648 15.4434 9.77385C15.7425 9.59903 16.1648 9.37581 16.518 9.20637C16.8591 9.04232 17.345 8.83523 17.7551 8.67924C17.9879 8.59049 18.2694 8.50039 18.5428 8.41433C18.6619 8.37667 18.777 8.34037 18.8798 8.3054C19.2629 8.179 19.7691 8.07142 20.213 7.98132C20.4539 7.93291 20.7436 7.88988 21.0237 7.84954C21.1428 7.83206 21.2565 7.81592 21.3607 7.79979C21.7871 7.73255 22.3501 7.707 22.7941 7.69355C23.1744 7.6801 23.6197 7.68414 23.9269 7.70162C24.3709 7.72717 24.9894 7.78499 25.4997 7.84954C26.2238 7.94098 26.8707 8.11042 27.5542 8.29061C28.0645 8.42508 28.7412 8.66176 29.2379 8.87826C29.6981 9.07997 30.0419 9.2373 30.2869 9.36236C30.5968 9.5197 31.011 9.74964 31.3169 9.93522C31.6349 10.1275 31.999 10.3642 32.244 10.539C32.6094 10.8012 32.7326 10.8886 33.2807 11.3391C33.3403 11.3889 33.6529 11.6511 34.063 12.0451C34.3757 12.3463 34.6369 12.6301 34.7628 12.7659C34.9144 12.9313 35.2527 13.3212 35.4652 13.5956C35.809 14.0366 35.8699 14.1281 36.2124 14.6283C36.4695 15.0062 36.9243 15.7808 37.1706 16.2958C37.3601 16.6911 37.6768 17.3541 37.9353 18.1394C38.2168 18.992 38.4104 19.7423 38.5119 20.369C38.6148 21.0037 38.7312 21.7204 38.7528 22.7492C38.7772 23.8774 38.6757 24.7676 38.6134 25.1979C38.5498 25.6376 38.432 26.4579 38.0815 27.6104C37.8704 28.3056 37.4887 29.1985 37.2058 29.8251C37.0759 30.1129 36.8674 30.4961 36.5683 30.9964C36.4384 31.2156 36.2665 31.4684 36.1014 31.7118C36.0296 31.8194 35.9593 31.9216 35.897 32.017C35.6642 32.3707 35.3096 32.8024 35.0551 33.0888L35.0091 33.1412C34.7032 33.4855 34.3243 33.9131 33.9927 34.2089C33.9182 34.2762 33.837 34.3488 33.7531 34.4254C33.5257 34.6312 33.2686 34.8638 33.052 35.0386C32.7529 35.2807 32.3117 35.6276 31.9516 35.8549L31.704 36.0122C31.4468 36.1763 31.1544 36.3619 30.9135 36.4977C30.5413 36.7061 30.0541 36.9535 29.7022 37.1136C28.4583 37.6784 27.385 37.9527 27.2673 37.9823C26.5351 38.1638 25.5768 38.3265 24.9772 38.4099C24.651 38.4556 24.2423 38.4717 23.8809 38.4865C23.7618 38.4919 23.6481 38.4959 23.5425 38.5013C23.4383 38.5094 23.3206 38.5121 23.2015 38.5121ZM10.9634 31.978C11.0487 32.0937 11.1597 32.243 11.2842 32.4003C12.1233 33.464 12.9056 34.1699 13.4213 34.6097C14.4445 35.4811 15.4461 36.0499 15.8224 36.2637C16.6358 36.7263 17.5683 37.1136 17.9987 37.2615C18.4995 37.4336 19.1749 37.6367 19.6797 37.7671C20.0777 37.8693 20.5433 37.9621 20.8681 38.0024C21.5556 38.0885 22.0686 38.1423 22.434 38.1665C22.7399 38.188 23.1879 38.2041 23.529 38.1867C23.6359 38.1813 23.751 38.1759 23.8701 38.1719C24.2233 38.1571 24.6253 38.1409 24.9353 38.0979C25.5267 38.0159 26.4728 37.8559 27.1928 37.677C27.3079 37.6488 28.3555 37.3812 29.5736 36.8271C29.9187 36.6698 30.3965 36.4278 30.7606 36.2234C30.9947 36.0929 31.2817 35.9087 31.5361 35.7473L31.7852 35.5886C32.1316 35.3708 32.5621 35.0306 32.8558 34.7953C33.0655 34.6272 33.3186 34.3972 33.5433 34.1942C33.6286 34.1175 33.7098 34.0435 33.7856 33.9763C34.1037 33.6926 34.4772 33.273 34.7763 32.9341L34.8223 32.8817C35.0687 32.6033 35.4125 32.1851 35.6358 31.8449C35.698 31.7494 35.7698 31.6445 35.8429 31.537C36.0053 31.2963 36.1731 31.0475 36.299 30.8364C36.5913 30.3469 36.7943 29.9744 36.9189 29.6974C37.1977 29.0788 37.5726 28.1993 37.7797 27.5203C38.1234 26.3907 38.2398 25.5865 38.3021 25.1549C38.363 24.734 38.4618 23.8626 38.4375 22.7572C38.4158 21.7514 38.3021 21.0454 38.2006 20.4228C38.1018 19.8109 37.911 19.078 37.6349 18.2403C37.3818 17.4751 37.0705 16.8229 36.885 16.4343C36.6441 15.9314 36.2015 15.177 35.9538 14.8139C35.6128 14.315 35.5532 14.2263 35.2148 13.7919C35.0064 13.5243 34.6775 13.1437 34.53 12.9824C34.4068 12.8479 34.1497 12.5695 33.8438 12.2737C33.4418 11.8864 33.1373 11.6323 33.0804 11.5852C32.5404 11.1414 32.4186 11.054 32.0599 10.7972C31.8217 10.6264 31.4657 10.3951 31.1544 10.2069C30.8553 10.0253 30.4493 9.80074 30.1448 9.6461C29.9052 9.52373 29.5682 9.36909 29.1134 9.17007C28.6302 8.95894 27.9724 8.72899 27.4757 8.59855C26.803 8.42105 26.1669 8.2543 25.4631 8.16555C24.9583 8.10235 24.3506 8.04453 23.912 8.01898C23.6129 8.00149 23.1798 7.99881 22.809 8.01091C22.3745 8.0257 21.8236 8.0499 21.4149 8.11445C21.3107 8.13059 21.1943 8.14807 21.0752 8.16555C20.7991 8.20589 20.5135 8.24758 20.282 8.29465C19.968 8.35919 19.3833 8.47753 18.9854 8.60931C18.8798 8.64428 18.7648 8.68058 18.6443 8.71958C18.375 8.80564 18.0962 8.89305 17.8729 8.97911C17.4709 9.13241 16.9945 9.33547 16.6602 9.49549C16.3191 9.65955 15.8954 9.88143 15.6085 10.0495C15.2864 10.2378 14.8221 10.5161 14.4987 10.7582C13.5431 11.4749 13.2548 11.6914 12.5267 12.4068C12.0462 12.8802 11.4168 13.6104 10.9255 14.2693C10.5438 14.7803 10.0877 15.5132 9.78995 16.0914C9.58693 16.4854 9.39745 16.8834 9.28105 17.1564C9.12134 17.5329 8.92779 18.0708 8.82357 18.36C8.80869 18.4003 8.46355 19.3725 8.247 20.7253C8.19015 21.0817 8.13601 21.5335 8.11165 21.8495C8.08323 22.2166 8.0724 22.6994 8.06293 23.0867L8.06157 23.1539C8.05481 23.4296 8.07105 23.837 8.10488 24.2432C8.14007 24.6587 8.21993 25.2329 8.2673 25.5744C8.33091 26.037 8.48927 26.6543 8.60567 27.1061C8.60702 27.1128 8.60837 27.1182 8.61108 27.1249C8.68823 27.3737 8.79515 27.7058 8.90884 28.0407C9.66814 30.0726 11.0094 31.8584 12.8298 33.2582C12.8542 33.2771 12.8772 33.2945 12.9016 33.3134L12.708 33.5662C12.0678 33.0794 11.4858 32.5496 10.9634 31.978Z" fill="#181818"/>
</svg>
