<svg width="267" height="66" viewBox="0 0 267 66" fill="none" xmlns="http://www.w3.org/2000/svg">
<path d="M33.5236 65.9999C45.3352 65.7859 54.61 61.7546 61.1103 55.2975C69.9094 46.5571 73.4767 32.2515 71.7327 13.3082C71.6534 12.5234 70.94 11.7742 70.0283 11.8455C56.4332 12.559 36.6152 23.2972 28.807 38.2092C24.1299 47.1636 24.8434 56.4034 30.7491 64.1805C35.664 48.0198 53.9362 28.0776 61.8633 21.1923C62.4975 20.6215 63.5281 20.6572 64.1622 21.228C64.7964 21.7988 64.7568 22.7264 64.1226 23.2972C56.1558 30.1824 37.7251 50.303 33.5236 65.9999Z" fill="white"/>
<path d="M22.5441 50.9095C22.3856 46.3075 23.4161 41.5627 25.8339 36.9964C26.4284 35.8904 27.0626 34.8202 27.7364 33.75C20.7605 23.9751 12.3577 15.3061 7.9581 11.4532C7.32392 10.8824 7.28429 9.95486 7.91846 9.38406C8.55264 8.77759 9.58317 8.77759 10.2173 9.34839C14.5773 13.1299 22.7027 21.5492 29.639 31.0387C32.4135 27.3998 35.7825 24.1534 39.4687 21.2994C31.1848 9.45541 16.242 0.750754 2.13161 0.00158309C1.25962 -0.0340917 0.466905 0.536705 0.427269 1.35723C-2.03016 27.3285 6.21412 45.4513 22.5441 50.9095Z" fill="white"/>
<path d="M86.5947 15.3221V51.9198H107.338V46.37H92.7603V36.3445H104.013V30.7947H92.7603V20.8716H107.338V15.3218L86.5947 15.3221ZM132.939 15.3221L118.732 31.2044V15.3221H112.566V51.9198H118.732V40.0785L120.636 37.9557L133.394 51.9196H141.407L124.585 33.5311L140.838 15.322L132.939 15.3221ZM147.147 24.3494C144.305 26.9069 142.884 29.9931 142.884 33.6076C142.884 37.2221 144.305 40.3083 147.147 42.8658C149.988 45.4232 153.417 46.702 157.433 46.702C161.448 46.702 164.877 45.4233 167.719 42.8658C170.56 40.3082 171.981 37.2221 171.981 33.6076C171.981 29.9931 170.56 26.9069 167.719 24.3494C164.877 21.792 161.448 20.5132 157.433 20.5132C153.417 20.5132 149.988 21.7919 147.147 24.3494ZM142.771 46.8047C138.717 43.1559 136.69 38.757 136.69 33.6081C136.69 28.4593 138.717 24.0602 142.771 20.4116C146.825 16.7629 151.712 14.9385 157.433 14.9385C163.153 14.9385 168.041 16.7628 172.094 20.4116C176.148 24.0603 178.175 28.4593 178.175 33.6081C178.175 38.757 176.148 43.1561 172.094 46.8047C168.04 50.4533 163.153 52.2778 157.433 52.2778C151.712 52.2778 146.824 50.4535 142.771 46.8047ZM195.963 15.3221V20.872H204.573V51.9202H210.767V20.872H219.377V15.3221H195.963ZM260.55 15.3221L246.059 45.1945L231.737 15.3221H225.287V51.9198H231.453V28.8251L242.563 51.9198H249.525L260.834 28.6719V51.9198H267V15.3221H260.55Z" fill="white"/>
</svg>
