<svg width="10" height="17" viewBox="0 0 10 17" fill="none" xmlns="http://www.w3.org/2000/svg">
<path d="M8 8.5L8.73105 9.18232L9.36789 8.5L8.73105 7.81768L8 8.5ZM1.73106 0.317681C1.35422 -0.0860692 0.721433 -0.107889 0.317682 0.268944C-0.0860691 0.645778 -0.107889 1.27857 0.268945 1.68232L1.73106 0.317681ZM0.268944 15.3177C-0.10789 15.7214 -0.0860698 16.3542 0.317681 16.7311C0.721432 17.1079 1.35422 17.0861 1.73105 16.6823L0.268944 15.3177ZM8.73105 7.81768L1.73106 0.317681L0.268945 1.68232L7.26894 9.18232L8.73105 7.81768ZM7.26894 7.81768L0.268944 15.3177L1.73105 16.6823L8.73105 9.18232L7.26894 7.81768Z" fill="white"/>
</svg>
