<svg width="10" height="17" viewBox="0 0 10 17" fill="none" xmlns="http://www.w3.org/2000/svg">
<path d="M2 8.5L1.26894 7.81768L0.632114 8.5L1.26894 9.18232L2 8.5ZM8.26894 16.6823C8.64578 17.0861 9.27857 17.1079 9.68232 16.7311C10.0861 16.3542 10.1079 15.7214 9.73106 15.3177L8.26894 16.6823ZM9.73106 1.68232C10.1079 1.27857 10.0861 0.645779 9.68232 0.268945C9.27857 -0.107889 8.64578 -0.086069 8.26894 0.317681L9.73106 1.68232ZM1.26894 9.18232L8.26894 16.6823L9.73106 15.3177L2.73106 7.81768L1.26894 9.18232ZM2.73106 9.18232L9.73106 1.68232L8.26894 0.317681L1.26894 7.81768L2.73106 9.18232Z" fill="white"/>
</svg>
